<svg width="1533" height="989" viewBox="0 0 1533 989" fill="none" xmlns="http://www.w3.org/2000/svg">
<rect x="11" y="221" width="59" height="59" rx="6" fill="#39D353" fill-opacity="0.8"/>
<rect x="151" y="221" width="59" height="59" rx="6" fill="#39D353" fill-opacity="0.8"/>
<rect x="81" y="221" width="59" height="59" rx="6" fill="#006D32" fill-opacity="0.8"/>
<rect x="221" y="221" width="59" height="59" rx="6" fill="#39D353" fill-opacity="0.8"/>
<rect x="11" y="291" width="59" height="59" rx="6" fill="#39D353" fill-opacity="0.8"/>
<rect x="291" y="291" width="59" height="59" rx="6" fill="#006D32" fill-opacity="0.8"/>
<rect x="291" y="151" width="59" height="59" rx="6" fill="#0E4429" fill-opacity="0.8"/>
<path d="M971.091 440.602C971.091 459.33 850.92 457.83 850.92 440.602C850.92 429.705 847.795 421.639 844.102 413.543C840.551 405.446 835.58 398.486 829.188 392.662C822.938 386.696 815.338 382.151 806.389 379.026C797.44 375.759 787.284 374.125 775.92 374.125C756.034 374.125 739.202 378.955 725.423 388.614C711.787 398.273 701.418 412.122 694.315 430.162C687.355 448.202 683.875 469.864 683.875 495.148C683.875 521.852 687.426 544.224 694.528 562.264C701.773 580.162 712.213 593.656 725.849 602.747C739.486 611.696 755.892 616.17 775.068 616.17C786.006 616.17 795.807 614.821 804.472 612.122C813.136 609.281 820.665 605.233 827.057 599.977C833.449 594.722 838.634 588.401 842.611 581.014C846.73 573.486 850.92 566.83 850.92 555.659C850.92 544.489 971.091 539.33 971.091 556.511C971.091 573.693 964.486 593.798 955.537 612.974C946.588 632.009 933.875 649.622 917.398 665.815C901.062 681.866 880.821 694.793 856.673 704.594C832.526 714.395 804.472 719.295 772.511 719.295C732.455 719.295 696.517 710.702 664.699 693.514C633.023 676.327 607.952 651.043 589.486 617.662C571.162 584.281 562 543.443 562 495.148C562 446.568 571.375 405.659 590.125 372.42C608.875 339.04 634.159 313.827 665.977 296.781C697.795 279.594 733.307 271 772.511 271C800.068 271 825.423 274.764 848.577 282.293C871.73 289.821 892.043 300.83 909.514 315.318C926.986 329.665 941.048 347.349 951.702 368.372C962.355 389.395 971.091 421.875 971.091 440.602Z" fill="#42D392"/>
<path d="M873.643 548.327C873.643 548.327 851 551 851 556C851 561 848 577.5 833.5 594C819 610.5 793 617.5 774 616C755 614.5 761.848 657.322 748.688 679.506C735.132 702.356 679 691.89 679 697.5C679 703.111 709.597 710.628 727.5 715.239C745.221 719.803 770.133 719 777.249 719C793.37 719 803.214 717.446 819.198 715.239C841.512 712.158 857.578 705.365 878.999 693.611C900.243 681.953 915 670 931.5 651C940.051 641.154 942.5 636.5 949 626C957.117 612.888 958.586 602.863 964.5 588.5C968 580 974.463 557.292 970 554C965.537 550.709 943.725 545.5 926.5 545.5C909 545.5 873.643 548.327 873.643 548.327Z" fill="url(#paint0_linear_32_2)"/>
<rect x="361" y="151" width="59" height="59" rx="6" fill="#0E4429" fill-opacity="0.8"/>
<path d="M877.493 451.526C877.493 451.526 850.46 447.525 850.46 439.524C850.46 431.523 848.958 412.02 830.936 394.518C812.914 377.015 792.389 373.015 772.364 373.015C752.34 373.015 752.084 335.601 737.321 312.006C722.115 287.703 673.243 300.004 667.235 297.004C663.88 295.328 697.214 281.905 717.297 277.001C737.176 272.147 761.378 270 769.36 270C787.444 270 798.487 271.653 816.418 274.001C841.449 277.278 859.471 284.502 883.5 297.004C907.331 309.403 918.491 321.383 935.063 342.51C943.793 353.64 948.497 360.251 954.587 373.015C961.718 387.959 963.722 397.314 967.103 413.52C969.606 425.522 973.61 441.024 968.604 444.525C963.598 448.025 947.727 451.399 935.063 453.026C912.764 455.89 877.493 451.526 877.493 451.526Z" fill="url(#paint1_linear_32_2)"/>
<rect x="431" y="221" width="59" height="59" rx="6" fill="#006D32" fill-opacity="0.8"/>
<rect x="501" y="362" width="59" height="59" rx="6" fill="#0E4429" fill-opacity="0.8"/>
<rect x="503" y="151" width="59" height="59" rx="6" fill="#006D32" fill-opacity="0.8"/>
<rect x="361" y="362" width="59" height="59" rx="6" fill="#39D353" fill-opacity="0.8"/>
<rect x="431" y="81" width="59" height="59" rx="6" fill="#39D353" fill-opacity="0.8"/>
<rect x="151" y="291" width="59" height="59" rx="6" fill="#0E4429" fill-opacity="0.8"/>
<rect x="151" y="362" width="59" height="59" rx="6" fill="#006D32" fill-opacity="0.8"/>
<rect x="503" y="291" width="59" height="59" rx="6" fill="#006D32" fill-opacity="0.8"/>
<rect x="221" y="151" width="59" height="59" rx="6" fill="#006D32" fill-opacity="0.8"/>
<rect x="361" y="81" width="59" height="59" rx="6" fill="#39D353" fill-opacity="0.8"/>
<rect x="221" y="571" width="59" height="59" rx="6" fill="#39D353" fill-opacity="0.8"/>
<rect x="361" y="571" width="59" height="59" rx="6" fill="#006D32" fill-opacity="0.8"/>
<rect x="291" y="571" width="59" height="59" rx="6" fill="#39D353" fill-opacity="0.8"/>
<rect x="431" y="571" width="59" height="59" rx="6" fill="#39D353" fill-opacity="0.8"/>
<rect x="291" y="501" width="59" height="59" rx="6" fill="#39D353" fill-opacity="0.8"/>
<rect x="361" y="501" width="59" height="59" rx="6" fill="#0E4429" fill-opacity="0.8"/>
<rect x="431" y="501" width="59" height="59" rx="6" fill="#0E4429" fill-opacity="0.8"/>
<rect x="81" y="81" width="59" height="59" rx="6" fill="#39D353" fill-opacity="0.8"/>
<rect x="221" y="81" width="59" height="59" rx="6" fill="#39D353" fill-opacity="0.8"/>
<rect x="151" y="81" width="59" height="59" rx="6" fill="#006D32" fill-opacity="0.8"/>
<rect x="291" y="81" width="59" height="59" rx="6" fill="#39D353" fill-opacity="0.8"/>
<rect x="431" y="291" width="59" height="59" rx="6" fill="#0E4429" fill-opacity="0.8"/>
<rect x="221" y="852" width="59" height="59" rx="6" fill="#39D353" fill-opacity="0.8"/>
<rect x="361" y="852" width="59" height="59" rx="6" fill="#006D32" fill-opacity="0.8"/>
<rect x="291" y="852" width="59" height="59" rx="6" fill="#39D353" fill-opacity="0.8"/>
<rect x="431" y="852" width="59" height="59" rx="6" fill="#39D353" fill-opacity="0.8"/>
<rect x="151" y="852" width="59" height="59" rx="6" fill="#006D32" fill-opacity="0.8"/>
<rect x="81" y="852" width="59" height="59" rx="6" fill="#39D353" fill-opacity="0.8"/>
<rect x="11" y="852" width="59" height="59" rx="6" fill="#39D353" fill-opacity="0.8"/>
<rect x="151" y="710" width="59" height="59" rx="6" fill="#006D32" fill-opacity="0.8"/>
<rect x="151" y="781" width="59" height="59" rx="6" fill="#0E4429" fill-opacity="0.8"/>
<rect x="81" y="781" width="59" height="59" rx="6" fill="#006D32" fill-opacity="0.8"/>
<rect x="81" y="923" width="59" height="59" rx="6" fill="#006D32" fill-opacity="0.8"/>
<rect x="291" y="921" width="59" height="59" rx="6" fill="#006D32" fill-opacity="0.8"/>
<rect x="221" y="921" width="59" height="59" rx="6" fill="#39D353" fill-opacity="0.8"/>
<rect x="361" y="921" width="59" height="59" rx="6" fill="#39D353" fill-opacity="0.8"/>
<rect x="151" y="12" width="59" height="59" rx="6" fill="#39D353" fill-opacity="0.8"/>
<rect x="221" y="12" width="59" height="59" rx="6" fill="#39D353" fill-opacity="0.8"/>
<rect x="361" y="10" width="59" height="59" rx="6" fill="#0E4429" fill-opacity="0.8"/>
<rect x="431" y="10" width="59" height="59" rx="6" fill="#0E4429" fill-opacity="0.8"/>
<rect x="501" y="641" width="59" height="59" rx="6" fill="#0E4429" fill-opacity="0.8"/>
<rect x="501" y="782" width="59" height="59" rx="6" fill="#39D353" fill-opacity="0.8"/>
<rect x="501" y="852" width="59" height="59" rx="6" fill="#006D32" fill-opacity="0.8"/>
<rect x="1054" y="220" width="59" height="59" rx="6" fill="#39D353" fill-opacity="0.8"/>
<rect x="1201" y="220" width="59" height="59" rx="6" fill="#39D353" fill-opacity="0.8"/>
<rect x="1131" y="220" width="59" height="59" rx="6" fill="#006D32" fill-opacity="0.8"/>
<rect x="1271" y="220" width="59" height="59" rx="6" fill="#39D353" fill-opacity="0.8"/>
<rect x="1054" y="290" width="59" height="59" rx="6" fill="#39D353" fill-opacity="0.8"/>
<rect x="1342" y="290" width="59" height="59" rx="6" fill="#006D32" fill-opacity="0.8"/>
<rect x="1341" y="150" width="59" height="59" rx="6" fill="#0E4429" fill-opacity="0.8"/>
<rect x="1411" y="150" width="59" height="59" rx="6" fill="#0E4429" fill-opacity="0.8"/>
<rect x="1413" y="361" width="59" height="59" rx="6" fill="#39D353" fill-opacity="0.8"/>
<rect x="1201" y="290" width="59" height="59" rx="6" fill="#0E4429" fill-opacity="0.8"/>
<rect x="1201" y="361" width="59" height="59" rx="6" fill="#006D32" fill-opacity="0.8"/>
<rect x="1271" y="150" width="59" height="59" rx="6" fill="#006D32" fill-opacity="0.8"/>
<rect x="1411" y="80" width="59" height="59" rx="6" fill="#39D353" fill-opacity="0.8"/>
<rect x="1342" y="500" width="59" height="59" rx="6" fill="#39D353" fill-opacity="0.8"/>
<rect x="1413" y="500" width="59" height="59" rx="6" fill="#0E4429" fill-opacity="0.8"/>
<rect x="1271" y="80" width="59" height="59" rx="6" fill="#39D353" fill-opacity="0.8"/>
<rect x="1201" y="82" width="59" height="59" rx="6" fill="#006D32" fill-opacity="0.8"/>
<rect x="1341" y="80" width="59" height="59" rx="6" fill="#39D353" fill-opacity="0.8"/>
<rect x="1201" y="851" width="59" height="59" rx="6" fill="#006D32" fill-opacity="0.8"/>
<rect x="1131" y="850" width="59" height="59" rx="6" fill="#39D353" fill-opacity="0.8"/>
<rect x="1061" y="850" width="59" height="59" rx="6" fill="#39D353" fill-opacity="0.8"/>
<rect x="1201" y="709" width="59" height="59" rx="6" fill="#006D32" fill-opacity="0.8"/>
<rect x="1201" y="780" width="59" height="59" rx="6" fill="#0E4429" fill-opacity="0.8"/>
<rect x="1131" y="780" width="59" height="59" rx="6" fill="#006D32" fill-opacity="0.8"/>
<rect x="1131" y="921" width="59" height="59" rx="6" fill="#006D32" fill-opacity="0.8"/>
<rect x="1341" y="919" width="59" height="59" rx="6" fill="#006D32" fill-opacity="0.8"/>
<rect x="1271" y="919" width="59" height="59" rx="6" fill="#39D353" fill-opacity="0.8"/>
<rect x="1411" y="919" width="59" height="59" rx="6" fill="#39D353" fill-opacity="0.8"/>
<rect x="1201" y="13" width="59" height="59" rx="6" fill="#39D353" fill-opacity="0.8"/>
<rect x="1271" y="11" width="59" height="59" rx="6" fill="#39D353" fill-opacity="0.8"/>
<rect x="1411" y="9" width="59" height="59" rx="6" fill="#0E4429" fill-opacity="0.8"/>
<rect x="1201" y="429" width="59" height="59" rx="6" fill="#39D353" fill-opacity="0.8"/>
<rect x="1131" y="432" width="59" height="59" rx="6" fill="#006D32" fill-opacity="0.8"/>
<rect x="991" y="711" width="59" height="59" rx="6" fill="#006D32" fill-opacity="0.8"/>
<rect x="1271" y="429" width="59" height="59" rx="6" fill="#39D353" fill-opacity="0.8"/>
<rect x="1201" y="499" width="59" height="59" rx="6" fill="#0E4429" fill-opacity="0.8"/>
<rect x="1201" y="570" width="59" height="59" rx="6" fill="#006D32" fill-opacity="0.8"/>
<rect x="1271" y="359" width="59" height="59" rx="6" fill="#006D32" fill-opacity="0.8"/>
<rect x="1061" y="570" width="59" height="59" rx="6" fill="#39D353" fill-opacity="0.8"/>
<rect x="1271" y="641" width="59" height="59" rx="6" fill="#39D353" fill-opacity="0.8"/>
<rect x="1411" y="641" width="59" height="59" rx="6" fill="#006D32" fill-opacity="0.8"/>
<rect x="1341" y="711" width="59" height="59" rx="6" fill="#006D32" fill-opacity="0.8"/>
<rect x="1411" y="711" width="59" height="59" rx="6" fill="#39D353" fill-opacity="0.8"/>
<rect x="1341" y="641" width="59" height="59" rx="6" fill="#0E4429" fill-opacity="0.8"/>
<rect x="1341" y="782" width="59" height="59" rx="6" fill="#006D32" fill-opacity="0.8"/>
<rect x="1411" y="782" width="59" height="59" rx="6" fill="#0E4429" fill-opacity="0.8"/>
<rect x="1201" y="641" width="59" height="59" rx="6" fill="#0E4429" fill-opacity="0.8"/>
<rect x="1131" y="641" width="59" height="59" rx="6" fill="#39D353" fill-opacity="0.8"/>
<rect x="914" y="153" width="59" height="59" rx="6" fill="#0E4429" fill-opacity="0.8"/>
<rect x="984" y="153" width="59" height="59" rx="6" fill="#0E4429" fill-opacity="0.8"/>
<rect x="1061" y="83" width="59" height="59" rx="6" fill="#39D353" fill-opacity="0.8"/>
<rect x="844" y="153" width="59" height="59" rx="6" fill="#006D32" fill-opacity="0.8"/>
<rect x="984" y="83" width="59" height="59" rx="6" fill="#39D353" fill-opacity="0.8"/>
<rect x="844" y="83" width="59" height="59" rx="6" fill="#39D353" fill-opacity="0.8"/>
<rect x="774" y="83" width="59" height="59" rx="6" fill="#006D32" fill-opacity="0.8"/>
<rect x="914" y="83" width="59" height="59" rx="6" fill="#39D353" fill-opacity="0.8"/>
<rect x="774" y="14" width="59" height="59" rx="6" fill="#39D353" fill-opacity="0.8"/>
<rect x="844" y="14" width="59" height="59" rx="6" fill="#39D353" fill-opacity="0.8"/>
<rect x="984" y="12" width="59" height="59" rx="6" fill="#0E4429" fill-opacity="0.8"/>
<rect x="1061" y="12" width="59" height="59" rx="6" fill="#0E4429" fill-opacity="0.8"/>
<rect x="781" y="850" width="59" height="59" rx="6" fill="#39D353" fill-opacity="0.8"/>
<rect x="921" y="850" width="59" height="59" rx="6" fill="#006D32" fill-opacity="0.8"/>
<rect x="851" y="850" width="59" height="59" rx="6" fill="#39D353" fill-opacity="0.8"/>
<rect x="711" y="850" width="59" height="59" rx="6" fill="#006D32" fill-opacity="0.8"/>
<rect x="641" y="850" width="59" height="59" rx="6" fill="#39D353" fill-opacity="0.8"/>
<rect x="571" y="850" width="59" height="59" rx="6" fill="#39D353" fill-opacity="0.8"/>
<rect x="711" y="782" width="59" height="59" rx="6" fill="#0E4429" fill-opacity="0.8"/>
<rect x="641" y="781" width="59" height="59" rx="6" fill="#006D32" fill-opacity="0.8"/>
<rect x="641" y="921" width="59" height="59" rx="6" fill="#006D32" fill-opacity="0.8"/>
<rect x="851" y="919" width="59" height="59" rx="6" fill="#006D32" fill-opacity="0.8"/>
<rect x="781" y="919" width="59" height="59" rx="6" fill="#39D353" fill-opacity="0.8"/>
<rect x="991" y="781" width="59" height="59" rx="6" fill="#39D353" fill-opacity="0.8"/>
<rect x="851" y="781" width="59" height="59" rx="6" fill="#006D32" fill-opacity="0.8"/>
<rect x="921" y="781" width="59" height="59" rx="6" fill="#0E4429" fill-opacity="0.8"/>
<rect x="571" y="709" width="59" height="59" rx="6" fill="#0E4429" fill-opacity="0.8"/>
<rect x="921" y="709" width="59" height="59" rx="6" fill="#0E4429" fill-opacity="0.8"/>
<rect x="991" y="641" width="59" height="59" rx="6" fill="#006D32" fill-opacity="0.8"/>
<rect x="1061" y="709" width="59" height="59" rx="6" fill="#39D353" fill-opacity="0.8"/>
<rect x="991" y="501" width="59" height="59" rx="6" fill="#006D32" fill-opacity="0.8"/>
<rect x="1061" y="499" width="59" height="59" rx="6" fill="#39D353" fill-opacity="0.8"/>
<rect x="1131" y="81" width="59" height="59" rx="6" fill="#006D32" fill-opacity="0.8"/>
<rect x="637" y="150" width="59" height="59" rx="6" fill="#006D32" fill-opacity="0.8"/>
<rect x="361" y="642" width="59" height="59" rx="6" fill="#006D32"/>
<rect x="291" y="712" width="59" height="59" rx="6" fill="#006D32"/>
<rect x="361" y="712" width="59" height="59" rx="6" fill="#39D353"/>
<rect x="291" y="642" width="59" height="59" rx="6" fill="#0E4429"/>
<rect x="291" y="783" width="59" height="59" rx="6" fill="#006D32"/>
<rect x="361" y="783" width="59" height="59" rx="6" fill="#0E4429"/>
<rect x="151" y="430" width="59" height="59" rx="6" fill="#39D353"/>
<rect x="81" y="430" width="59" height="59" rx="6" fill="#006D32"/>
<rect x="221" y="430" width="59" height="59" rx="6" fill="#39D353"/>
<rect x="151" y="500" width="59" height="59" rx="6" fill="#0E4429"/>
<rect x="151" y="571" width="59" height="59" rx="6" fill="#006D32"/>
<rect x="221" y="360" width="59" height="59" rx="6" fill="#006D32"/>
<rect x="81" y="571" width="59" height="59" rx="6" fill="#39D353"/>
<rect x="11" y="571" width="59" height="59" rx="6" fill="#39D353"/>
<rect x="221" y="642" width="59" height="59" rx="6" fill="#39D353"/>
<rect x="431" y="642" width="59" height="59" rx="6" fill="#0E4429"/>
<rect x="151" y="642" width="59" height="59" rx="6" fill="#0E4429"/>
<rect x="81" y="642" width="59" height="59" rx="6" fill="#39D353"/>
<rect x="571" y="10" width="59" height="59" rx="6" fill="#39D353"/>
<rect x="500" y="10" width="59" height="59" rx="6" fill="#39D353"/>
<defs>
<linearGradient id="paint0_linear_32_2" x1="821.5" y1="719" x2="821.5" y2="546.001" gradientUnits="userSpaceOnUse">
<stop stop-color="#647EFF"/>
<stop offset="1" stop-color="#647EFF" stop-opacity="0"/>
</linearGradient>
<linearGradient id="paint1_linear_32_2" x1="819" y1="270" x2="819" y2="454" gradientUnits="userSpaceOnUse">
<stop stop-color="#647EFF"/>
<stop offset="1" stop-color="#0B2E59" stop-opacity="0"/>
<stop offset="1" stop-color="#647EFF" stop-opacity="0"/>
</linearGradient>
</defs>
</svg>
