<svg xmlns="http://www.w3.org/2000/svg" fill="none" viewBox="0 0 1850 1327" width="1800"><path fill="#2DA44E" d="M940.865 237.992h-31.731a4.762 4.762 0 0 0-4.76 4.76v31.732a4.76 4.76 0 0 0 4.76 4.759h31.731a4.76 4.76 0 0 0 4.76-4.759v-31.732a4.762 4.762 0 0 0-4.76-4.76ZM940.865 190.395h-31.731a4.76 4.76 0 0 0-4.76 4.759v31.732a4.762 4.762 0 0 0 4.76 4.76h31.731a4.762 4.762 0 0 0 4.76-4.76v-31.732a4.76 4.76 0 0 0-4.76-4.759Z"/><path fill="#2DA44E" fill-opacity=".5" d="M940.865 285.592h-31.731a4.762 4.762 0 0 0-4.76 4.76v31.731a4.762 4.762 0 0 0 4.76 4.76h31.731a4.762 4.762 0 0 0 4.76-4.76v-31.731a4.762 4.762 0 0 0-4.76-4.76Z"/><path fill="#2DA44E" d="M988.464 285.592h-31.732a4.762 4.762 0 0 0-4.76 4.76v31.731a4.762 4.762 0 0 0 4.76 4.76h31.732a4.762 4.762 0 0 0 4.759-4.76v-31.731a4.762 4.762 0 0 0-4.759-4.76Z"/><path fill="#2DA44E" fill-opacity=".7" d="M893.266 237.992h-31.731a4.762 4.762 0 0 0-4.76 4.76v31.732a4.76 4.76 0 0 0 4.76 4.759h31.731a4.76 4.76 0 0 0 4.76-4.759v-31.732a4.762 4.762 0 0 0-4.76-4.76Z"/><path fill="#2DA44E" d="M1036.06 237.992h-31.73a4.765 4.765 0 0 0-4.759 4.76v31.732a4.764 4.764 0 0 0 4.759 4.759h31.73c2.63 0 4.76-2.13 4.76-4.759v-31.732a4.76 4.76 0 0 0-4.76-4.76ZM1036.06 190.395h-31.73a4.764 4.764 0 0 0-4.759 4.759v31.732a4.765 4.765 0 0 0 4.759 4.76h31.73a4.76 4.76 0 0 0 4.76-4.76v-31.732a4.758 4.758 0 0 0-4.76-4.759Z"/><path fill="#2DA44E" fill-opacity=".3" d="M845.667 285.592h-31.731a4.762 4.762 0 0 0-4.76 4.76v31.731a4.762 4.762 0 0 0 4.76 4.76h31.731a4.762 4.762 0 0 0 4.76-4.76v-31.731a4.762 4.762 0 0 0-4.76-4.76ZM1083.66 285.592h-31.73a4.76 4.76 0 0 0-4.76 4.76v31.731a4.76 4.76 0 0 0 4.76 4.76h31.73a4.76 4.76 0 0 0 4.76-4.76v-31.731a4.76 4.76 0 0 0-4.76-4.76Z"/><path fill="#2DA44E" fill-opacity=".4" d="M798.07 190.395h-31.731a4.759 4.759 0 0 0-4.76 4.759v31.732a4.76 4.76 0 0 0 4.76 4.76h31.731a4.762 4.762 0 0 0 4.76-4.76v-31.732a4.76 4.76 0 0 0-4.76-4.759Z"/><path fill="#2DA44E" fill-opacity=".3" d="M750.47 190.395h-31.731a4.759 4.759 0 0 0-4.76 4.759v31.732a4.76 4.76 0 0 0 4.76 4.76h31.731a4.76 4.76 0 0 0 4.76-4.76v-31.732a4.759 4.759 0 0 0-4.76-4.759ZM1131.26 190.395h-31.73c-2.63 0-4.76 2.13-4.76 4.759v31.732a4.76 4.76 0 0 0 4.76 4.76h31.73c2.62 0 4.76-2.131 4.76-4.76v-31.732a4.765 4.765 0 0 0-4.76-4.759Z"/><path fill="#2DA44E" fill-opacity=".6" d="M1178.86 190.395h-31.73c-2.63 0-4.76 2.13-4.76 4.759v31.732a4.76 4.76 0 0 0 4.76 4.76h31.73c2.62 0 4.76-2.131 4.76-4.76v-31.732a4.765 4.765 0 0 0-4.76-4.759Z"/><path fill="#2DA44E" fill-opacity=".5" d="M655.273 285.592h-31.732a4.76 4.76 0 0 0-4.759 4.76v31.731a4.76 4.76 0 0 0 4.759 4.76h31.732a4.76 4.76 0 0 0 4.76-4.76v-31.731a4.76 4.76 0 0 0-4.76-4.76Z"/><path fill="#2DA44E" fill-opacity=".3" d="M655.273 237.992h-31.732a4.76 4.76 0 0 0-4.759 4.76v31.732a4.759 4.759 0 0 0 4.759 4.759h31.732c2.629 0 4.76-2.13 4.76-4.759v-31.732a4.76 4.76 0 0 0-4.76-4.76Z"/><path fill="#2DA44E" d="M655.273 190.395h-31.732a4.759 4.759 0 0 0-4.759 4.759v31.732a4.76 4.76 0 0 0 4.759 4.76h31.732a4.76 4.76 0 0 0 4.76-4.76v-31.732a4.759 4.759 0 0 0-4.76-4.759ZM1226.46 190.395h-31.74c-2.62 0-4.76 2.13-4.76 4.759v31.732c0 2.629 2.14 4.76 4.76 4.76h31.74c2.62 0 4.76-2.131 4.76-4.76v-31.732a4.765 4.765 0 0 0-4.76-4.759Z"/><path fill="#2DA44E" fill-opacity=".3" d="M1226.46 285.592h-31.74a4.766 4.766 0 0 0-4.76 4.76v31.731c0 2.629 2.14 4.76 4.76 4.76h31.74c2.62 0 4.76-2.131 4.76-4.76v-31.731c0-2.629-2.14-4.76-4.76-4.76Z"/><path fill="#2DA44E" d="M607.675 285.592h-31.732a4.759 4.759 0 0 0-4.759 4.76v31.731c0 2.629 2.13 4.76 4.759 4.76h31.732a4.76 4.76 0 0 0 4.76-4.76v-31.731a4.76 4.76 0 0 0-4.76-4.76ZM1274.05 142.796h-31.73a4.766 4.766 0 0 0-4.76 4.76v31.731c0 2.629 2.14 4.76 4.76 4.76h31.73a4.76 4.76 0 0 0 4.76-4.76v-31.731a4.76 4.76 0 0 0-4.76-4.76ZM1274.05 190.395h-31.73c-2.62 0-4.76 2.13-4.76 4.759v31.732c0 2.629 2.14 4.76 4.76 4.76h31.73a4.76 4.76 0 0 0 4.76-4.76v-31.732a4.758 4.758 0 0 0-4.76-4.759ZM1274.05 237.992h-31.73a4.766 4.766 0 0 0-4.76 4.76v31.732a4.765 4.765 0 0 0 4.76 4.759h31.73c2.63 0 4.76-2.13 4.76-4.759v-31.732a4.76 4.76 0 0 0-4.76-4.76ZM1274.05 285.592h-31.73a4.766 4.766 0 0 0-4.76 4.76v31.731c0 2.629 2.14 4.76 4.76 4.76h31.73a4.76 4.76 0 0 0 4.76-4.76v-31.731a4.76 4.76 0 0 0-4.76-4.76ZM1321.65 47.599h-31.73a4.766 4.766 0 0 0-4.76 4.76V84.09c0 2.63 2.14 4.76 4.76 4.76h31.73c2.63 0 4.76-2.13 4.76-4.76V52.358a4.76 4.76 0 0 0-4.76-4.76Z"/><path fill="#2DA44E" fill-opacity=".3" d="M1321.65 190.395h-31.73c-2.62 0-4.76 2.13-4.76 4.759v31.732c0 2.629 2.14 4.76 4.76 4.76h31.73a4.76 4.76 0 0 0 4.76-4.76v-31.732a4.758 4.758 0 0 0-4.76-4.759Z"/><path fill="#2DA44E" d="M1321.65 237.992h-31.73a4.766 4.766 0 0 0-4.76 4.76v31.732a4.765 4.765 0 0 0 4.76 4.759h31.73c2.63 0 4.76-2.13 4.76-4.759v-31.732a4.76 4.76 0 0 0-4.76-4.76ZM1321.65 285.592h-31.73a4.766 4.766 0 0 0-4.76 4.76v31.731c0 2.629 2.14 4.76 4.76 4.76h31.73a4.76 4.76 0 0 0 4.76-4.76v-31.731a4.76 4.76 0 0 0-4.76-4.76Z"/><path fill="#2DA44E" fill-opacity=".3" d="M1321.65 95.197h-31.73c-2.62 0-4.76 2.131-4.76 4.76v31.732c0 2.629 2.14 4.76 4.76 4.76h31.73a4.76 4.76 0 0 0 4.76-4.76V99.957c0-2.629-2.13-4.76-4.76-4.76Z"/><path fill="#2DA44E" d="M560.076 475.985h-31.731a4.76 4.76 0 0 0-4.76 4.76v31.732a4.76 4.76 0 0 0 4.76 4.76h31.731a4.76 4.76 0 0 0 4.76-4.76v-31.732a4.76 4.76 0 0 0-4.76-4.76ZM560.076 285.592h-31.731a4.76 4.76 0 0 0-4.76 4.76v31.731a4.76 4.76 0 0 0 4.76 4.76h31.731a4.76 4.76 0 0 0 4.76-4.76v-31.731a4.76 4.76 0 0 0-4.76-4.76Z"/><path fill="#2DA44E" fill-opacity=".2" d="M560.076 95.197h-31.731a4.76 4.76 0 0 0-4.76 4.76v31.732a4.76 4.76 0 0 0 4.76 4.76h31.731a4.76 4.76 0 0 0 4.76-4.76V99.957a4.76 4.76 0 0 0-4.76-4.76Z"/><path fill="#2DA44E" fill-opacity=".5" d="M560.076 190.395h-31.731a4.759 4.759 0 0 0-4.76 4.759v31.732a4.76 4.76 0 0 0 4.76 4.76h31.731a4.76 4.76 0 0 0 4.76-4.76v-31.732a4.759 4.759 0 0 0-4.76-4.759Z"/><path fill="#2DA44E" d="M560.076 237.992h-31.731a4.76 4.76 0 0 0-4.76 4.76v31.732a4.759 4.759 0 0 0 4.76 4.759h31.731c2.629 0 4.76-2.13 4.76-4.759v-31.732a4.76 4.76 0 0 0-4.76-4.76ZM560.076 142.796h-31.731a4.76 4.76 0 0 0-4.76 4.76v31.731a4.76 4.76 0 0 0 4.76 4.76h31.731a4.76 4.76 0 0 0 4.76-4.76v-31.731a4.76 4.76 0 0 0-4.76-4.76ZM512.478 475.985h-31.732a4.76 4.76 0 0 0-4.76 4.76v31.732a4.76 4.76 0 0 0 4.76 4.76h31.732a4.759 4.759 0 0 0 4.759-4.76v-31.732c0-2.629-2.13-4.76-4.759-4.76ZM512.478 333.189h-31.732a4.76 4.76 0 0 0-4.76 4.76v31.732a4.76 4.76 0 0 0 4.76 4.76h31.732a4.759 4.759 0 0 0 4.759-4.76v-31.732c0-2.629-2.13-4.76-4.759-4.76Z"/><path fill="#2DA44E" fill-opacity=".5" d="M512.478 380.788h-31.732a4.76 4.76 0 0 0-4.76 4.76v31.732a4.759 4.759 0 0 0 4.76 4.759h31.732a4.758 4.758 0 0 0 4.759-4.759v-31.732c0-2.629-2.13-4.76-4.759-4.76Z"/><path fill="#2DA44E" d="M512.478 190.395h-31.732a4.759 4.759 0 0 0-4.76 4.759v31.732a4.76 4.76 0 0 0 4.76 4.76h31.732a4.759 4.759 0 0 0 4.759-4.76v-31.732a4.758 4.758 0 0 0-4.759-4.759ZM512.478 142.796h-31.732a4.76 4.76 0 0 0-4.76 4.76v31.731a4.76 4.76 0 0 0 4.76 4.76h31.732a4.759 4.759 0 0 0 4.759-4.76v-31.731c0-2.629-2.13-4.76-4.759-4.76ZM512.478 237.992h-31.732a4.76 4.76 0 0 0-4.76 4.76v31.732a4.759 4.759 0 0 0 4.76 4.759h31.732a4.758 4.758 0 0 0 4.759-4.759v-31.732c0-2.629-2.13-4.76-4.759-4.76ZM1369.25 380.788h-31.73a4.76 4.76 0 0 0-4.76 4.76v31.732a4.758 4.758 0 0 0 4.76 4.759h31.73c2.63 0 4.76-2.13 4.76-4.759v-31.732a4.76 4.76 0 0 0-4.76-4.76ZM1369.25 475.985h-31.73a4.76 4.76 0 0 0-4.76 4.76v31.732a4.76 4.76 0 0 0 4.76 4.76h31.73a4.76 4.76 0 0 0 4.76-4.76v-31.732a4.76 4.76 0 0 0-4.76-4.76ZM1369.25 333.189h-31.73a4.76 4.76 0 0 0-4.76 4.76v31.732a4.76 4.76 0 0 0 4.76 4.76h31.73a4.76 4.76 0 0 0 4.76-4.76v-31.732a4.76 4.76 0 0 0-4.76-4.76ZM1369.25 190.395h-31.73c-2.63 0-4.76 2.13-4.76 4.759v31.732a4.76 4.76 0 0 0 4.76 4.76h31.73a4.76 4.76 0 0 0 4.76-4.76v-31.732a4.758 4.758 0 0 0-4.76-4.759Z"/><path fill="#2DA44E" fill-opacity=".8" d="M1369.25 95.197h-31.73c-2.63 0-4.76 2.131-4.76 4.76v31.732a4.76 4.76 0 0 0 4.76 4.76h31.73a4.76 4.76 0 0 0 4.76-4.76V99.957c0-2.629-2.13-4.76-4.76-4.76Z"/><path fill="#2DA44E" d="M1369.25 142.796h-31.73a4.76 4.76 0 0 0-4.76 4.76v31.731a4.76 4.76 0 0 0 4.76 4.76h31.73a4.76 4.76 0 0 0 4.76-4.76v-31.731a4.76 4.76 0 0 0-4.76-4.76Z"/><path fill="#2DA44E" fill-opacity=".6" d="M464.879 95.197h-31.732a4.76 4.76 0 0 0-4.76 4.76v31.732a4.76 4.76 0 0 0 4.76 4.76h31.732a4.76 4.76 0 0 0 4.76-4.76V99.957a4.76 4.76 0 0 0-4.76-4.76Z"/><path fill="#2DA44E" fill-opacity=".5" d="M464.879 333.189h-31.732a4.76 4.76 0 0 0-4.76 4.76v31.732a4.76 4.76 0 0 0 4.76 4.76h31.732a4.76 4.76 0 0 0 4.76-4.76v-31.732a4.76 4.76 0 0 0-4.76-4.76Z"/><path fill="#2DA44E" fill-opacity=".7" d="M464.879 428.387h-31.732a4.76 4.76 0 0 0-4.76 4.759v31.732a4.76 4.76 0 0 0 4.76 4.76h31.732a4.76 4.76 0 0 0 4.76-4.76v-31.732a4.76 4.76 0 0 0-4.76-4.759Z"/><path fill="#2DA44E" fill-opacity=".5" d="M464.879 285.592h-31.732a4.76 4.76 0 0 0-4.76 4.76v31.731a4.76 4.76 0 0 0 4.76 4.76h31.732a4.76 4.76 0 0 0 4.76-4.76v-31.731a4.76 4.76 0 0 0-4.76-4.76Z"/><path fill="#2DA44E" d="M464.879 380.788h-31.732a4.76 4.76 0 0 0-4.76 4.76v31.732a4.759 4.759 0 0 0 4.76 4.759h31.732c2.629 0 4.76-2.13 4.76-4.759v-31.732a4.76 4.76 0 0 0-4.76-4.76ZM464.879 190.395h-31.732a4.759 4.759 0 0 0-4.76 4.759v31.732a4.76 4.76 0 0 0 4.76 4.76h31.732a4.76 4.76 0 0 0 4.76-4.76v-31.732a4.759 4.759 0 0 0-4.76-4.759ZM1416.85 571.183h-31.73c-2.63 0-4.76 2.13-4.76 4.759v31.732a4.76 4.76 0 0 0 4.76 4.76h31.73a4.76 4.76 0 0 0 4.76-4.76v-31.732a4.758 4.758 0 0 0-4.76-4.759Z"/><path fill="#2DA44E" fill-opacity=".3" d="M1416.85 618.781h-31.73a4.76 4.76 0 0 0-4.76 4.76v31.732a4.76 4.76 0 0 0 4.76 4.76h31.73a4.76 4.76 0 0 0 4.76-4.76v-31.732a4.76 4.76 0 0 0-4.76-4.76Z"/><path fill="#2DA44E" d="M1416.85 523.584h-31.73a4.76 4.76 0 0 0-4.76 4.76v31.731a4.76 4.76 0 0 0 4.76 4.76h31.73a4.76 4.76 0 0 0 4.76-4.76v-31.731a4.76 4.76 0 0 0-4.76-4.76ZM1416.85 285.592h-31.73a4.76 4.76 0 0 0-4.76 4.76v31.731a4.76 4.76 0 0 0 4.76 4.76h31.73a4.76 4.76 0 0 0 4.76-4.76v-31.731a4.76 4.76 0 0 0-4.76-4.76ZM1416.85 333.189h-31.73a4.76 4.76 0 0 0-4.76 4.76v31.732a4.76 4.76 0 0 0 4.76 4.76h31.73a4.76 4.76 0 0 0 4.76-4.76v-31.732a4.76 4.76 0 0 0-4.76-4.76Z"/><path fill="#2DA44E" fill-opacity=".5" d="M1416.85 380.788h-31.73a4.76 4.76 0 0 0-4.76 4.76v31.732a4.758 4.758 0 0 0 4.76 4.759h31.73c2.63 0 4.76-2.13 4.76-4.759v-31.732a4.76 4.76 0 0 0-4.76-4.76ZM1416.85 47.599h-31.73a4.76 4.76 0 0 0-4.76 4.76V84.09c0 2.63 2.13 4.76 4.76 4.76h31.73c2.63 0 4.76-2.13 4.76-4.76V52.358a4.76 4.76 0 0 0-4.76-4.76Z"/><path fill="#2DA44E" fill-opacity=".4" d="M1416.85 95.197h-31.73c-2.63 0-4.76 2.131-4.76 4.76v31.732a4.76 4.76 0 0 0 4.76 4.76h31.73a4.76 4.76 0 0 0 4.76-4.76V99.957c0-2.629-2.13-4.76-4.76-4.76Z"/><path fill="#2DA44E" d="M1416.85 142.796h-31.73a4.76 4.76 0 0 0-4.76 4.76v31.731a4.76 4.76 0 0 0 4.76 4.76h31.73a4.76 4.76 0 0 0 4.76-4.76v-31.731a4.76 4.76 0 0 0-4.76-4.76Z"/><path fill="#2DA44E" fill-opacity=".3" d="M1464.45 333.189h-31.73a4.76 4.76 0 0 0-4.76 4.76v31.732a4.76 4.76 0 0 0 4.76 4.76h31.73c2.62 0 4.76-2.131 4.76-4.76v-31.732c0-2.629-2.14-4.76-4.76-4.76Z"/><path fill="#2DA44E" fill-opacity=".5" d="M1464.45 571.183h-31.73c-2.63 0-4.76 2.13-4.76 4.759v31.732a4.76 4.76 0 0 0 4.76 4.76h31.73c2.62 0 4.76-2.131 4.76-4.76v-31.732a4.765 4.765 0 0 0-4.76-4.759ZM1464.45 523.584h-31.73a4.76 4.76 0 0 0-4.76 4.76v31.731a4.76 4.76 0 0 0 4.76 4.76h31.73c2.62 0 4.76-2.131 4.76-4.76v-31.731c0-2.629-2.14-4.76-4.76-4.76Z"/><path fill="#2DA44E" d="M1464.45 618.781h-31.73a4.76 4.76 0 0 0-4.76 4.76v31.732a4.76 4.76 0 0 0 4.76 4.76h31.73c2.62 0 4.76-2.131 4.76-4.76v-31.732c0-2.629-2.14-4.76-4.76-4.76Z"/><path fill="#2DA44E" fill-opacity=".7" d="M1464.45 475.985h-31.73a4.76 4.76 0 0 0-4.76 4.76v31.732a4.76 4.76 0 0 0 4.76 4.76h31.73c2.62 0 4.76-2.131 4.76-4.76v-31.732c0-2.629-2.14-4.76-4.76-4.76Z"/><path fill="#2DA44E" fill-opacity=".2" d="M1464.45 428.387h-31.73a4.759 4.759 0 0 0-4.76 4.759v31.732a4.76 4.76 0 0 0 4.76 4.76h31.73c2.62 0 4.76-2.131 4.76-4.76v-31.732a4.765 4.765 0 0 0-4.76-4.759Z"/><path fill="#2DA44E" d="M1464.45 95.197h-31.73c-2.63 0-4.76 2.131-4.76 4.76v31.732a4.76 4.76 0 0 0 4.76 4.76h31.73c2.62 0 4.76-2.131 4.76-4.76V99.957c0-2.629-2.14-4.76-4.76-4.76ZM1464.45 0h-31.73a4.76 4.76 0 0 0-4.76 4.76v31.732a4.76 4.76 0 0 0 4.76 4.76h31.73c2.62 0 4.76-2.132 4.76-4.76V4.76c0-2.629-2.14-4.76-4.76-4.76Z"/><path fill="#2DA44E" fill-opacity=".5" d="M1464.45 47.599h-31.73a4.76 4.76 0 0 0-4.76 4.76V84.09c0 2.63 2.13 4.76 4.76 4.76h31.73c2.62 0 4.76-2.13 4.76-4.76V52.358c0-2.628-2.14-4.76-4.76-4.76Z"/><path fill="#2DA44E" d="M1464.45 237.992h-31.73a4.76 4.76 0 0 0-4.76 4.76v31.732a4.758 4.758 0 0 0 4.76 4.759h31.73c2.62 0 4.76-2.13 4.76-4.759v-31.732c0-2.629-2.14-4.76-4.76-4.76Z"/><path fill="#2DA44E" fill-opacity=".5" d="M417.281 380.788h-31.732a4.76 4.76 0 0 0-4.76 4.76v31.732a4.759 4.759 0 0 0 4.76 4.759h31.732c2.629 0 4.76-2.13 4.76-4.759v-31.732a4.76 4.76 0 0 0-4.76-4.76Z"/><path fill="#2DA44E" fill-opacity=".3" d="M417.281 571.183h-31.732a4.759 4.759 0 0 0-4.76 4.759v31.732a4.76 4.76 0 0 0 4.76 4.76h31.732a4.76 4.76 0 0 0 4.76-4.76v-31.732a4.759 4.759 0 0 0-4.76-4.759Z"/><path fill="#2DA44E" d="M417.281 618.781h-31.732a4.76 4.76 0 0 0-4.76 4.76v31.732a4.76 4.76 0 0 0 4.76 4.76h31.732a4.76 4.76 0 0 0 4.76-4.76v-31.732a4.76 4.76 0 0 0-4.76-4.76Z"/><path fill="#2DA44E" fill-opacity=".5" d="M417.281 475.985h-31.732a4.76 4.76 0 0 0-4.76 4.76v31.732a4.76 4.76 0 0 0 4.76 4.76h31.732a4.76 4.76 0 0 0 4.76-4.76v-31.732a4.76 4.76 0 0 0-4.76-4.76Z"/><path fill="#2DA44E" d="M417.281 523.584h-31.732a4.76 4.76 0 0 0-4.76 4.76v31.731a4.76 4.76 0 0 0 4.76 4.76h31.732a4.76 4.76 0 0 0 4.76-4.76v-31.731a4.76 4.76 0 0 0-4.76-4.76Z"/><path fill="#2DA44E" fill-opacity=".5" d="M417.281 190.395h-31.732a4.759 4.759 0 0 0-4.76 4.759v31.732a4.76 4.76 0 0 0 4.76 4.76h31.732a4.76 4.76 0 0 0 4.76-4.76v-31.732a4.759 4.759 0 0 0-4.76-4.759ZM417.281 237.992h-31.732a4.76 4.76 0 0 0-4.76 4.76v31.732a4.759 4.759 0 0 0 4.76 4.759h31.732c2.629 0 4.76-2.13 4.76-4.759v-31.732a4.76 4.76 0 0 0-4.76-4.76Z"/><path fill="#2DA44E" d="M417.281 142.796h-31.732a4.76 4.76 0 0 0-4.76 4.76v31.731a4.76 4.76 0 0 0 4.76 4.76h31.732a4.76 4.76 0 0 0 4.76-4.76v-31.731a4.76 4.76 0 0 0-4.76-4.76Z"/><path fill="#2DA44E" fill-opacity=".2" d="M417.281 95.197h-31.732a4.76 4.76 0 0 0-4.76 4.76v31.732a4.76 4.76 0 0 0 4.76 4.76h31.732a4.76 4.76 0 0 0 4.76-4.76V99.957a4.76 4.76 0 0 0-4.76-4.76Z"/><path fill="#2DA44E" d="M417.281 47.599h-31.732a4.76 4.76 0 0 0-4.76 4.76V84.09a4.76 4.76 0 0 0 4.76 4.76h31.732a4.76 4.76 0 0 0 4.76-4.76V52.358a4.76 4.76 0 0 0-4.76-4.76Z"/><path fill="#2DA44E" fill-opacity=".3" d="M417.281 0h-31.732a4.76 4.76 0 0 0-4.76 4.76v31.732a4.76 4.76 0 0 0 4.76 4.76h31.732a4.76 4.76 0 0 0 4.76-4.76V4.76a4.76 4.76 0 0 0-4.76-4.76Z"/><path fill="#2DA44E" fill-opacity=".5" d="M1512.05 666.379h-31.73a4.76 4.76 0 0 0-4.76 4.76v31.731a4.76 4.76 0 0 0 4.76 4.76h31.73c2.62 0 4.76-2.131 4.76-4.76v-31.731c0-2.629-2.14-4.76-4.76-4.76Z"/><path fill="#2DA44E" d="M1512.05 190.395h-31.73c-2.63 0-4.76 2.13-4.76 4.759v31.732a4.76 4.76 0 0 0 4.76 4.76h31.73c2.62 0 4.76-2.131 4.76-4.76v-31.732a4.765 4.765 0 0 0-4.76-4.759ZM1512.05 95.197h-31.73c-2.63 0-4.76 2.131-4.76 4.76v31.732a4.76 4.76 0 0 0 4.76 4.76h31.73c2.62 0 4.76-2.131 4.76-4.76V99.957c0-2.629-2.14-4.76-4.76-4.76Z"/><path fill="#2DA44E" fill-opacity=".5" d="M1512.05 47.599h-31.73a4.76 4.76 0 0 0-4.76 4.76V84.09c0 2.63 2.13 4.76 4.76 4.76h31.73c2.62 0 4.76-2.13 4.76-4.76V52.358c0-2.628-2.14-4.76-4.76-4.76ZM1512.05 142.796h-31.73a4.76 4.76 0 0 0-4.76 4.76v31.731a4.76 4.76 0 0 0 4.76 4.76h31.73c2.62 0 4.76-2.131 4.76-4.76v-31.731c0-2.629-2.14-4.76-4.76-4.76Z"/><path fill="#2DA44E" d="M1512.05 237.992h-31.73a4.76 4.76 0 0 0-4.76 4.76v31.732a4.758 4.758 0 0 0 4.76 4.759h31.73c2.62 0 4.76-2.13 4.76-4.759v-31.732c0-2.629-2.14-4.76-4.76-4.76ZM1512.05 380.788h-31.73a4.76 4.76 0 0 0-4.76 4.76v31.732a4.758 4.758 0 0 0 4.76 4.759h31.73c2.62 0 4.76-2.13 4.76-4.759v-31.732c0-2.629-2.14-4.76-4.76-4.76ZM1512.05 428.387h-31.73a4.759 4.759 0 0 0-4.76 4.759v31.732a4.76 4.76 0 0 0 4.76 4.76h31.73c2.62 0 4.76-2.131 4.76-4.76v-31.732a4.765 4.765 0 0 0-4.76-4.759Z"/><path fill="#2DA44E" fill-opacity=".5" d="M1512.05 475.985h-31.73a4.76 4.76 0 0 0-4.76 4.76v31.732a4.76 4.76 0 0 0 4.76 4.76h31.73c2.62 0 4.76-2.131 4.76-4.76v-31.732c0-2.629-2.14-4.76-4.76-4.76Z"/><path fill="#2DA44E" d="M1512.05 523.584h-31.73a4.76 4.76 0 0 0-4.76 4.76v31.731a4.76 4.76 0 0 0 4.76 4.76h31.73c2.62 0 4.76-2.131 4.76-4.76v-31.731c0-2.629-2.14-4.76-4.76-4.76Z"/><path fill="#2DA44E" fill-opacity=".3" d="M1512.05 571.183h-31.73c-2.63 0-4.76 2.13-4.76 4.759v31.732a4.76 4.76 0 0 0 4.76 4.76h31.73c2.62 0 4.76-2.131 4.76-4.76v-31.732a4.765 4.765 0 0 0-4.76-4.759Z"/><path fill="#2DA44E" fill-opacity=".5" d="M369.682 237.992H337.95a4.76 4.76 0 0 0-4.76 4.76v31.732a4.759 4.759 0 0 0 4.76 4.759h31.732a4.758 4.758 0 0 0 4.759-4.759v-31.732c0-2.629-2.13-4.76-4.759-4.76ZM369.682 333.189H337.95a4.76 4.76 0 0 0-4.76 4.76v31.732a4.76 4.76 0 0 0 4.76 4.76h31.732a4.759 4.759 0 0 0 4.759-4.76v-31.732c0-2.629-2.13-4.76-4.759-4.76Z"/><path fill="#2DA44E" fill-opacity=".8" d="M369.682 285.592H337.95a4.76 4.76 0 0 0-4.76 4.76v31.731a4.76 4.76 0 0 0 4.76 4.76h31.732a4.759 4.759 0 0 0 4.759-4.76v-31.731c0-2.629-2.13-4.76-4.759-4.76Z"/><path fill="#2DA44E" d="M369.682 571.183H337.95a4.759 4.759 0 0 0-4.76 4.759v31.732a4.76 4.76 0 0 0 4.76 4.76h31.732a4.759 4.759 0 0 0 4.759-4.76v-31.732a4.758 4.758 0 0 0-4.759-4.759Z"/><path fill="#2DA44E" fill-opacity=".3" d="M369.682 618.781H337.95a4.76 4.76 0 0 0-4.76 4.76v31.732a4.76 4.76 0 0 0 4.76 4.76h31.732a4.759 4.759 0 0 0 4.759-4.76v-31.732c0-2.629-2.13-4.76-4.759-4.76Z"/><path fill="#2DA44E" d="M369.682 666.379H337.95a4.76 4.76 0 0 0-4.76 4.76v31.731a4.76 4.76 0 0 0 4.76 4.76h31.732a4.759 4.759 0 0 0 4.759-4.76v-31.731c0-2.629-2.13-4.76-4.759-4.76Z"/><path fill="#2DA44E" fill-opacity=".5" d="M369.682 475.985H337.95a4.76 4.76 0 0 0-4.76 4.76v31.732a4.76 4.76 0 0 0 4.76 4.76h31.732a4.759 4.759 0 0 0 4.759-4.76v-31.732c0-2.629-2.13-4.76-4.759-4.76Z"/><path fill="#2DA44E" d="M369.682 523.584H337.95a4.76 4.76 0 0 0-4.76 4.76v31.731a4.76 4.76 0 0 0 4.76 4.76h31.732a4.759 4.759 0 0 0 4.759-4.76v-31.731c0-2.629-2.13-4.76-4.759-4.76ZM369.682 142.796H337.95a4.76 4.76 0 0 0-4.76 4.76v31.731a4.76 4.76 0 0 0 4.76 4.76h31.732a4.759 4.759 0 0 0 4.759-4.76v-31.731c0-2.629-2.13-4.76-4.759-4.76Z"/><path fill="#2DA44E" fill-opacity=".2" d="M369.682 95.197H337.95a4.76 4.76 0 0 0-4.76 4.76v31.732a4.76 4.76 0 0 0 4.76 4.76h31.732a4.759 4.759 0 0 0 4.759-4.76V99.957c0-2.629-2.13-4.76-4.759-4.76Z"/><path fill="#2DA44E" d="M369.682 47.599H337.95a4.76 4.76 0 0 0-4.76 4.76V84.09a4.76 4.76 0 0 0 4.76 4.76h31.732a4.759 4.759 0 0 0 4.759-4.76V52.358c0-2.628-2.13-4.76-4.759-4.76Z"/><path fill="#2DA44E" fill-opacity=".5" d="M1559.65 0h-31.73a4.76 4.76 0 0 0-4.76 4.76v31.732a4.76 4.76 0 0 0 4.76 4.76h31.73c2.62 0 4.76-2.132 4.76-4.76V4.76c0-2.629-2.14-4.76-4.76-4.76Z"/><path fill="#2DA44E" d="M1527.92 517.237h31.73c2.62 0 4.76-2.131 4.76-4.76v-31.732c0-2.629-2.14-4.76-4.76-4.76h-31.73a4.76 4.76 0 0 0-4.76 4.76v31.732a4.76 4.76 0 0 0 4.76 4.76ZM1527.92 612.434h31.73c2.62 0 4.76-2.131 4.76-4.76v-31.732a4.765 4.765 0 0 0-4.76-4.759h-31.73c-2.63 0-4.76 2.13-4.76 4.759v31.732a4.76 4.76 0 0 0 4.76 4.76Z"/><path fill="#2DA44E" fill-opacity=".5" d="M1527.92 660.033h31.73c2.62 0 4.76-2.131 4.76-4.76v-31.732c0-2.629-2.14-4.76-4.76-4.76h-31.73a4.76 4.76 0 0 0-4.76 4.76v31.732a4.76 4.76 0 0 0 4.76 4.76ZM1527.92 564.835h31.73c2.62 0 4.76-2.131 4.76-4.76v-31.731c0-2.629-2.14-4.76-4.76-4.76h-31.73a4.76 4.76 0 0 0-4.76 4.76v31.731a4.76 4.76 0 0 0 4.76 4.76Z"/><path fill="#2DA44E" d="M1527.92 469.638h31.73c2.62 0 4.76-2.131 4.76-4.76v-31.732a4.765 4.765 0 0 0-4.76-4.759h-31.73a4.759 4.759 0 0 0-4.76 4.759v31.732a4.76 4.76 0 0 0 4.76 4.76ZM1527.92 326.843h31.73c2.62 0 4.76-2.131 4.76-4.76v-31.731c0-2.629-2.14-4.76-4.76-4.76h-31.73a4.76 4.76 0 0 0-4.76 4.76v31.731a4.76 4.76 0 0 0 4.76 4.76ZM1527.92 279.243h31.73c2.62 0 4.76-2.13 4.76-4.759v-31.732c0-2.629-2.14-4.76-4.76-4.76h-31.73a4.76 4.76 0 0 0-4.76 4.76v31.732a4.758 4.758 0 0 0 4.76 4.759Z"/><path fill="#2DA44E" fill-opacity=".5" d="M1527.92 231.646h31.73c2.62 0 4.76-2.131 4.76-4.76v-31.732a4.765 4.765 0 0 0-4.76-4.759h-31.73c-2.63 0-4.76 2.13-4.76 4.759v31.732a4.76 4.76 0 0 0 4.76 4.76Z"/><path fill="#2DA44E" d="M1527.92 184.047h31.73c2.62 0 4.76-2.131 4.76-4.76v-31.731c0-2.629-2.14-4.76-4.76-4.76h-31.73a4.76 4.76 0 0 0-4.76 4.76v31.731a4.76 4.76 0 0 0 4.76 4.76Z"/><path fill="#2DA44E" fill-opacity=".3" d="M1559.65 95.197h-31.73c-2.63 0-4.76 2.131-4.76 4.76v31.732a4.76 4.76 0 0 0 4.76 4.76h31.73c2.62 0 4.76-2.131 4.76-4.76V99.957c0-2.629-2.14-4.76-4.76-4.76Z"/><path fill="#2DA44E" fill-opacity=".5" d="M290.352 279.243h31.731c2.629 0 4.76-2.13 4.76-4.759v-31.732a4.76 4.76 0 0 0-4.76-4.76h-31.731a4.76 4.76 0 0 0-4.76 4.76v31.732a4.759 4.759 0 0 0 4.76 4.759Z"/><path fill="#2DA44E" fill-opacity=".3" d="M290.352 88.85h31.731a4.76 4.76 0 0 0 4.76-4.76V52.358a4.76 4.76 0 0 0-4.76-4.76h-31.731a4.76 4.76 0 0 0-4.76 4.76V84.09a4.76 4.76 0 0 0 4.76 4.76Z"/><path fill="#2DA44E" d="M290.352 41.251h31.731a4.76 4.76 0 0 0 4.76-4.76V4.76a4.76 4.76 0 0 0-4.76-4.76h-31.731a4.76 4.76 0 0 0-4.76 4.76v31.732a4.76 4.76 0 0 0 4.76 4.76Z"/><path fill="#2DA44E" fill-opacity=".5" d="M290.352 184.047h31.731a4.76 4.76 0 0 0 4.76-4.76v-31.731a4.76 4.76 0 0 0-4.76-4.76h-31.731a4.76 4.76 0 0 0-4.76 4.76v31.731a4.76 4.76 0 0 0 4.76 4.76Z"/><path fill="#2DA44E" d="M290.352 136.449h31.731a4.76 4.76 0 0 0 4.76-4.76V99.957a4.76 4.76 0 0 0-4.76-4.76h-31.731a4.76 4.76 0 0 0-4.76 4.76v31.732a4.76 4.76 0 0 0 4.76 4.76Z"/><path fill="#2DA44E" fill-opacity=".5" d="M290.352 422.039h31.731c2.629 0 4.76-2.13 4.76-4.759v-31.732a4.76 4.76 0 0 0-4.76-4.76h-31.731a4.76 4.76 0 0 0-4.76 4.76v31.732a4.759 4.759 0 0 0 4.76 4.759ZM290.352 374.441h31.731a4.76 4.76 0 0 0 4.76-4.76v-31.732a4.76 4.76 0 0 0-4.76-4.76h-31.731a4.76 4.76 0 0 0-4.76 4.76v31.732a4.76 4.76 0 0 0 4.76 4.76Z"/><path fill="#2DA44E" fill-opacity=".2" d="M290.352 517.237h31.731a4.76 4.76 0 0 0 4.76-4.76v-31.732a4.76 4.76 0 0 0-4.76-4.76h-31.731a4.76 4.76 0 0 0-4.76 4.76v31.732a4.76 4.76 0 0 0 4.76 4.76Z"/><path fill="#2DA44E" d="M290.352 469.638h31.731a4.76 4.76 0 0 0 4.76-4.76v-31.732a4.76 4.76 0 0 0-4.76-4.759h-31.731a4.76 4.76 0 0 0-4.76 4.759v31.732a4.76 4.76 0 0 0 4.76 4.76ZM290.352 564.835h31.731a4.76 4.76 0 0 0 4.76-4.76v-31.731a4.76 4.76 0 0 0-4.76-4.76h-31.731a4.76 4.76 0 0 0-4.76 4.76v31.731a4.76 4.76 0 0 0 4.76 4.76Z"/><path fill="#2DA44E" fill-opacity=".3" d="M290.352 612.434h31.731a4.76 4.76 0 0 0 4.76-4.76v-31.732a4.759 4.759 0 0 0-4.76-4.759h-31.731a4.759 4.759 0 0 0-4.76 4.759v31.732a4.76 4.76 0 0 0 4.76 4.76ZM1575.51 422.039h31.74c2.62 0 4.76-2.13 4.76-4.759v-31.732c0-2.629-2.14-4.76-4.76-4.76h-31.74a4.766 4.766 0 0 0-4.76 4.76v31.732a4.765 4.765 0 0 0 4.76 4.759Z"/><path fill="#2DA44E" fill-opacity=".5" d="M1607.25 95.197h-31.74c-2.62 0-4.76 2.131-4.76 4.76v31.732c0 2.629 2.14 4.76 4.76 4.76h31.74c2.62 0 4.76-2.131 4.76-4.76V99.957c0-2.629-2.14-4.76-4.76-4.76ZM1575.51 184.047h31.74c2.62 0 4.76-2.131 4.76-4.76v-31.731c0-2.629-2.14-4.76-4.76-4.76h-31.74a4.766 4.766 0 0 0-4.76 4.76v31.731c0 2.629 2.14 4.76 4.76 4.76Z"/><path fill="#2DA44E" d="M1607.25 47.599h-31.74a4.766 4.766 0 0 0-4.76 4.76V84.09c0 2.63 2.14 4.76 4.76 4.76h31.74c2.62 0 4.76-2.13 4.76-4.76V52.358c0-2.628-2.14-4.76-4.76-4.76Z"/><path fill="#2DA44E" fill-opacity=".7" d="M1575.51 231.646h31.74c2.62 0 4.76-2.131 4.76-4.76v-31.732a4.765 4.765 0 0 0-4.76-4.759h-31.74c-2.62 0-4.76 2.13-4.76 4.759v31.732c0 2.629 2.14 4.76 4.76 4.76Z"/><path fill="#2DA44E" fill-opacity=".2" d="M1575.51 279.243h31.74c2.62 0 4.76-2.13 4.76-4.759v-31.732c0-2.629-2.14-4.76-4.76-4.76h-31.74a4.766 4.766 0 0 0-4.76 4.76v31.732a4.765 4.765 0 0 0 4.76 4.759Z"/><path fill="#2DA44E" d="M1575.51 612.434h31.74c2.62 0 4.76-2.131 4.76-4.76v-31.732a4.765 4.765 0 0 0-4.76-4.759h-31.74c-2.62 0-4.76 2.13-4.76 4.759v31.732c0 2.629 2.14 4.76 4.76 4.76ZM1575.51 707.63h31.74c2.62 0 4.76-2.131 4.76-4.76v-31.731c0-2.629-2.14-4.76-4.76-4.76h-31.74a4.766 4.766 0 0 0-4.76 4.76v31.731c0 2.629 2.14 4.76 4.76 4.76Z"/><path fill="#2DA44E" fill-opacity=".5" d="M1575.51 660.033h31.74c2.62 0 4.76-2.131 4.76-4.76v-31.732c0-2.629-2.14-4.76-4.76-4.76h-31.74a4.766 4.766 0 0 0-4.76 4.76v31.732c0 2.629 2.14 4.76 4.76 4.76Z"/><path fill="#2DA44E" d="M1575.51 517.237h31.74c2.62 0 4.76-2.131 4.76-4.76v-31.732c0-2.629-2.14-4.76-4.76-4.76h-31.74a4.766 4.766 0 0 0-4.76 4.76v31.732c0 2.629 2.14 4.76 4.76 4.76Z"/><path fill="#2DA44E" fill-opacity=".6" d="M242.753 564.835h31.731a4.76 4.76 0 0 0 4.76-4.76v-31.731a4.76 4.76 0 0 0-4.76-4.76h-31.731a4.76 4.76 0 0 0-4.76 4.76v31.731a4.76 4.76 0 0 0 4.76 4.76Z"/><path fill="#2DA44E" d="M242.753 469.638h31.731a4.76 4.76 0 0 0 4.76-4.76v-31.732a4.76 4.76 0 0 0-4.76-4.759h-31.731a4.76 4.76 0 0 0-4.76 4.759v31.732a4.76 4.76 0 0 0 4.76 4.76Z"/><path fill="#2DA44E" fill-opacity=".5" d="M242.753 326.843h31.731a4.76 4.76 0 0 0 4.76-4.76v-31.731a4.76 4.76 0 0 0-4.76-4.76h-31.731a4.76 4.76 0 0 0-4.76 4.76v31.731a4.76 4.76 0 0 0 4.76 4.76ZM242.753 279.243h31.731c2.629 0 4.76-2.13 4.76-4.759v-31.732a4.76 4.76 0 0 0-4.76-4.76h-31.731a4.76 4.76 0 0 0-4.76 4.76v31.732a4.759 4.759 0 0 0 4.76 4.759Z"/><path fill="#2DA44E" d="M242.753 231.646h31.731a4.76 4.76 0 0 0 4.76-4.76v-31.732a4.759 4.759 0 0 0-4.76-4.759h-31.731a4.759 4.759 0 0 0-4.76 4.759v31.732a4.76 4.76 0 0 0 4.76 4.76Z"/><path fill="#2DA44E" fill-opacity=".7" d="M274.484 142.796h-31.731a4.76 4.76 0 0 0-4.76 4.76v31.731a4.76 4.76 0 0 0 4.76 4.76h31.731a4.76 4.76 0 0 0 4.76-4.76v-31.731a4.76 4.76 0 0 0-4.76-4.76Z"/><path fill="#2DA44E" d="M1623.11 184.047h31.73a4.76 4.76 0 0 0 4.76-4.76v-31.731a4.76 4.76 0 0 0-4.76-4.76h-31.73a4.766 4.766 0 0 0-4.76 4.76v31.731c0 2.629 2.14 4.76 4.76 4.76Z"/><path fill="#2DA44E" fill-opacity=".3" d="M1654.84 95.197h-31.73c-2.62 0-4.76 2.131-4.76 4.76v31.732c0 2.629 2.14 4.76 4.76 4.76h31.73a4.76 4.76 0 0 0 4.76-4.76V99.957c0-2.629-2.13-4.76-4.76-4.76Z"/><path fill="#2DA44E" d="M1623.11 231.646h31.73a4.76 4.76 0 0 0 4.76-4.76v-31.732a4.758 4.758 0 0 0-4.76-4.759h-31.73c-2.62 0-4.76 2.13-4.76 4.759v31.732c0 2.629 2.14 4.76 4.76 4.76ZM1623.11 422.039h31.73c2.63 0 4.76-2.13 4.76-4.759v-31.732a4.76 4.76 0 0 0-4.76-4.76h-31.73a4.766 4.766 0 0 0-4.76 4.76v31.732a4.765 4.765 0 0 0 4.76 4.759ZM1623.11 374.441h31.73a4.76 4.76 0 0 0 4.76-4.76v-31.732a4.76 4.76 0 0 0-4.76-4.76h-31.73a4.766 4.766 0 0 0-4.76 4.76v31.732c0 2.629 2.14 4.76 4.76 4.76Z"/><path fill="#2DA44E" fill-opacity=".5" d="M1623.11 326.843h31.73a4.76 4.76 0 0 0 4.76-4.76v-31.731a4.76 4.76 0 0 0-4.76-4.76h-31.73a4.766 4.766 0 0 0-4.76 4.76v31.731c0 2.629 2.14 4.76 4.76 4.76ZM1623.11 660.033h31.73a4.76 4.76 0 0 0 4.76-4.76v-31.732a4.76 4.76 0 0 0-4.76-4.76h-31.73a4.766 4.766 0 0 0-4.76 4.76v31.732c0 2.629 2.14 4.76 4.76 4.76Z"/><path fill="#2DA44E" fill-opacity=".4" d="M1623.11 612.434h31.73a4.76 4.76 0 0 0 4.76-4.76v-31.732a4.758 4.758 0 0 0-4.76-4.759h-31.73c-2.62 0-4.76 2.13-4.76 4.759v31.732c0 2.629 2.14 4.76 4.76 4.76Z"/><path fill="#2DA44E" d="M1623.11 564.835h31.73a4.76 4.76 0 0 0 4.76-4.76v-31.731a4.76 4.76 0 0 0-4.76-4.76h-31.73a4.766 4.766 0 0 0-4.76 4.76v31.731c0 2.629 2.14 4.76 4.76 4.76ZM195.154 136.449h31.732a4.76 4.76 0 0 0 4.76-4.76V99.957a4.76 4.76 0 0 0-4.76-4.76h-31.732a4.759 4.759 0 0 0-4.759 4.76v31.732c0 2.629 2.13 4.76 4.759 4.76ZM195.154 279.243h31.732c2.629 0 4.76-2.13 4.76-4.759v-31.732a4.76 4.76 0 0 0-4.76-4.76h-31.732a4.759 4.759 0 0 0-4.759 4.76v31.732a4.758 4.758 0 0 0 4.759 4.759Z"/><path fill="#2DA44E" fill-opacity=".5" d="M195.154 231.646h31.732a4.76 4.76 0 0 0 4.76-4.76v-31.732a4.759 4.759 0 0 0-4.76-4.759h-31.732a4.758 4.758 0 0 0-4.759 4.759v31.732c0 2.629 2.13 4.76 4.759 4.76Z"/><path fill="#2DA44E" d="M195.154 469.638h31.732a4.76 4.76 0 0 0 4.76-4.76v-31.732a4.76 4.76 0 0 0-4.76-4.759h-31.732a4.759 4.759 0 0 0-4.759 4.759v31.732c0 2.629 2.13 4.76 4.759 4.76ZM195.154 517.237h31.732a4.76 4.76 0 0 0 4.76-4.76v-31.732a4.76 4.76 0 0 0-4.76-4.76h-31.732a4.759 4.759 0 0 0-4.759 4.76v31.732c0 2.629 2.13 4.76 4.759 4.76ZM195.154 422.039h31.732c2.629 0 4.76-2.13 4.76-4.759v-31.732a4.76 4.76 0 0 0-4.76-4.76h-31.732a4.759 4.759 0 0 0-4.759 4.76v31.732a4.758 4.758 0 0 0 4.759 4.759ZM1670.71 231.646h31.73a4.76 4.76 0 0 0 4.76-4.76v-31.732a4.758 4.758 0 0 0-4.76-4.759h-31.73c-2.62 0-4.76 2.13-4.76 4.759v31.732c0 2.629 2.14 4.76 4.76 4.76Z"/><path fill="#2DA44E" fill-opacity=".5" d="M1670.71 184.047h31.73a4.76 4.76 0 0 0 4.76-4.76v-31.731a4.76 4.76 0 0 0-4.76-4.76h-31.73a4.766 4.766 0 0 0-4.76 4.76v31.731c0 2.629 2.14 4.76 4.76 4.76Z"/><path fill="#2DA44E" d="M1702.44 95.197h-31.73c-2.62 0-4.76 2.131-4.76 4.76v31.732c0 2.629 2.14 4.76 4.76 4.76h31.73a4.76 4.76 0 0 0 4.76-4.76V99.957c0-2.629-2.13-4.76-4.76-4.76ZM1670.71 279.243h31.73c2.63 0 4.76-2.13 4.76-4.759v-31.732a4.76 4.76 0 0 0-4.76-4.76h-31.73a4.766 4.766 0 0 0-4.76 4.76v31.732a4.765 4.765 0 0 0 4.76 4.759ZM1670.71 374.441h31.73a4.76 4.76 0 0 0 4.76-4.76v-31.732a4.76 4.76 0 0 0-4.76-4.76h-31.73a4.766 4.766 0 0 0-4.76 4.76v31.732c0 2.629 2.14 4.76 4.76 4.76Z"/><path fill="#2DA44E" fill-opacity=".8" d="M1670.71 469.638h31.73a4.76 4.76 0 0 0 4.76-4.76v-31.732a4.759 4.759 0 0 0-4.76-4.759h-31.73a4.765 4.765 0 0 0-4.76 4.759v31.732c0 2.629 2.14 4.76 4.76 4.76Z"/><path fill="#2DA44E" d="M1670.71 422.039h31.73c2.63 0 4.76-2.13 4.76-4.759v-31.732a4.76 4.76 0 0 0-4.76-4.76h-31.73a4.766 4.766 0 0 0-4.76 4.76v31.732a4.765 4.765 0 0 0 4.76 4.759ZM147.556 184.047h31.731a4.76 4.76 0 0 0 4.76-4.76v-31.731a4.76 4.76 0 0 0-4.76-4.76h-31.731a4.76 4.76 0 0 0-4.76 4.76v31.731a4.76 4.76 0 0 0 4.76 4.76Z"/><path fill="#2DA44E" fill-opacity=".3" d="M147.556 279.243h31.731c2.629 0 4.76-2.13 4.76-4.759v-31.732a4.76 4.76 0 0 0-4.76-4.76h-31.731a4.76 4.76 0 0 0-4.76 4.76v31.732a4.759 4.759 0 0 0 4.76 4.759Z"/><path fill="#2DA44E" d="M147.556 326.843h31.731a4.76 4.76 0 0 0 4.76-4.76v-31.731a4.76 4.76 0 0 0-4.76-4.76h-31.731a4.76 4.76 0 0 0-4.76 4.76v31.731a4.76 4.76 0 0 0 4.76 4.76Z"/><path fill="#2DA44E" fill-opacity=".5" d="M147.556 422.039h31.731c2.629 0 4.76-2.13 4.76-4.759v-31.732a4.76 4.76 0 0 0-4.76-4.76h-31.731a4.76 4.76 0 0 0-4.76 4.76v31.732a4.759 4.759 0 0 0 4.76 4.759Z"/><path fill="#2DA44E" d="M147.556 374.441h31.731a4.76 4.76 0 0 0 4.76-4.76v-31.732a4.76 4.76 0 0 0-4.76-4.76h-31.731a4.76 4.76 0 0 0-4.76 4.76v31.732a4.76 4.76 0 0 0 4.76 4.76Z"/><path fill="#2DA44E" fill-opacity=".2" d="M147.556 517.237h31.731a4.76 4.76 0 0 0 4.76-4.76v-31.732a4.76 4.76 0 0 0-4.76-4.76h-31.731a4.76 4.76 0 0 0-4.76 4.76v31.732a4.76 4.76 0 0 0 4.76 4.76Z"/><path fill="#2DA44E" d="M147.556 469.638h31.731a4.76 4.76 0 0 0 4.76-4.76v-31.732a4.76 4.76 0 0 0-4.76-4.759h-31.731a4.76 4.76 0 0 0-4.76 4.759v31.732a4.76 4.76 0 0 0 4.76 4.76ZM1718.31 184.047h31.73a4.76 4.76 0 0 0 4.76-4.76v-31.731a4.76 4.76 0 0 0-4.76-4.76h-31.73a4.76 4.76 0 0 0-4.76 4.76v31.731a4.76 4.76 0 0 0 4.76 4.76ZM1718.31 422.039h31.73c2.63 0 4.76-2.13 4.76-4.759v-31.732a4.76 4.76 0 0 0-4.76-4.76h-31.73a4.76 4.76 0 0 0-4.76 4.76v31.732a4.758 4.758 0 0 0 4.76 4.759ZM1718.31 374.441h31.73a4.76 4.76 0 0 0 4.76-4.76v-31.732a4.76 4.76 0 0 0-4.76-4.76h-31.73a4.76 4.76 0 0 0-4.76 4.76v31.732a4.76 4.76 0 0 0 4.76 4.76Z"/><path fill="#2DA44E" fill-opacity=".7" d="M1718.31 231.646h31.73a4.76 4.76 0 0 0 4.76-4.76v-31.732a4.758 4.758 0 0 0-4.76-4.759h-31.73c-2.63 0-4.76 2.13-4.76 4.759v31.732a4.76 4.76 0 0 0 4.76 4.76Z"/><path fill="#2DA44E" d="M1718.31 326.843h31.73a4.76 4.76 0 0 0 4.76-4.76v-31.731a4.76 4.76 0 0 0-4.76-4.76h-31.73a4.76 4.76 0 0 0-4.76 4.76v31.731a4.76 4.76 0 0 0 4.76 4.76Z"/><path fill="#2DA44E" fill-opacity=".3" d="M1718.31 279.243h31.73c2.63 0 4.76-2.13 4.76-4.759v-31.732a4.76 4.76 0 0 0-4.76-4.76h-31.73a4.76 4.76 0 0 0-4.76 4.76v31.732a4.758 4.758 0 0 0 4.76 4.759Z"/><path fill="#2DA44E" d="M99.957 326.843h31.732a4.76 4.76 0 0 0 4.76-4.76v-31.731a4.76 4.76 0 0 0-4.76-4.76H99.957a4.76 4.76 0 0 0-4.76 4.76v31.731a4.76 4.76 0 0 0 4.76 4.76ZM1765.91 326.049h31.73a4.76 4.76 0 0 0 4.76-4.76v-31.731a4.76 4.76 0 0 0-4.76-4.76h-31.73a4.766 4.766 0 0 0-4.76 4.76v31.731c0 2.629 2.14 4.76 4.76 4.76Z"/><path fill="#2DA44E" fill-opacity=".5" d="M1765.91 231.646h31.73a4.76 4.76 0 0 0 4.76-4.76v-31.732a4.758 4.758 0 0 0-4.76-4.759h-31.73c-2.62 0-4.76 2.13-4.76 4.759v31.732c0 2.629 2.14 4.76 4.76 4.76Z"/><path fill="#2DA44E" d="M52.358 326.843H84.09a4.76 4.76 0 0 0 4.76-4.76v-31.731a4.76 4.76 0 0 0-4.76-4.76H52.358a4.76 4.76 0 0 0-4.76 4.76v31.731a4.76 4.76 0 0 0 4.76 4.76ZM52.358 374.441H84.09a4.76 4.76 0 0 0 4.76-4.76v-31.732a4.76 4.76 0 0 0-4.76-4.76H52.358a4.76 4.76 0 0 0-4.76 4.76v31.732a4.76 4.76 0 0 0 4.76 4.76ZM52.358 422.039H84.09c2.63 0 4.76-2.13 4.76-4.759v-31.732a4.76 4.76 0 0 0-4.76-4.76H52.358a4.76 4.76 0 0 0-4.76 4.76v31.732a4.759 4.759 0 0 0 4.76 4.759Z"/><path fill="#2DA44E" fill-opacity=".2" d="M1813.51 278.45h31.73c2.62 0 4.76-2.13 4.76-4.759v-31.732c0-2.629-2.14-4.76-4.76-4.76h-31.73a4.76 4.76 0 0 0-4.76 4.76v31.732a4.758 4.758 0 0 0 4.76 4.759Z"/><path fill="#2DA44E" d="M1813.51 326.049h31.73c2.62 0 4.76-2.131 4.76-4.76v-31.731c0-2.629-2.14-4.76-4.76-4.76h-31.73a4.76 4.76 0 0 0-4.76 4.76v31.731a4.76 4.76 0 0 0 4.76 4.76Z"/><path fill="#2DA44E" fill-opacity=".3" d="M4.76 374.441H36.49a4.76 4.76 0 0 0 4.76-4.76v-31.732a4.76 4.76 0 0 0-4.76-4.76H4.76a4.76 4.76 0 0 0-4.76 4.76v31.732a4.76 4.76 0 0 0 4.76 4.76Z"/><path fill="#2DA44E" d="M909.135 1088.84h31.731c2.626 0 4.76-2.13 4.76-4.76v-31.73c0-2.63-2.134-4.76-4.76-4.76h-31.731a4.761 4.761 0 0 0-4.76 4.76v31.73c0 2.63 2.134 4.76 4.76 4.76ZM909.135 1136.44h31.731c2.626 0 4.76-2.13 4.76-4.76v-31.73c0-2.63-2.134-4.76-4.76-4.76h-31.731a4.761 4.761 0 0 0-4.76 4.76v31.73c0 2.63 2.134 4.76 4.76 4.76Z"/><path fill="#2DA44E" fill-opacity=".5" d="M909.135 1041.24h31.731c2.626 0 4.76-2.13 4.76-4.76v-31.73a4.76 4.76 0 0 0-4.76-4.759h-31.731a4.76 4.76 0 0 0-4.76 4.759v31.73c0 2.63 2.134 4.76 4.76 4.76Z"/><path fill="#2DA44E" d="M861.536 1041.24h31.732c2.626 0 4.76-2.13 4.76-4.76v-31.73a4.76 4.76 0 0 0-4.76-4.759h-31.732a4.76 4.76 0 0 0-4.759 4.759v31.73a4.76 4.76 0 0 0 4.759 4.76Z"/><path fill="#2DA44E" fill-opacity=".7" d="M956.734 1088.84h31.731c2.626 0 4.76-2.13 4.76-4.76v-31.73c0-2.63-2.134-4.76-4.76-4.76h-31.731a4.761 4.761 0 0 0-4.76 4.76v31.73c0 2.63 2.134 4.76 4.76 4.76Z"/><path fill="#2DA44E" d="M813.938 1088.84h31.731c2.626 0 4.76-2.13 4.76-4.76v-31.73c0-2.63-2.134-4.76-4.76-4.76h-31.731a4.761 4.761 0 0 0-4.76 4.76v31.73c0 2.63 2.134 4.76 4.76 4.76ZM813.938 1136.44h31.731c2.626 0 4.76-2.13 4.76-4.76v-31.73c0-2.63-2.134-4.76-4.76-4.76h-31.731a4.761 4.761 0 0 0-4.76 4.76v31.73c0 2.63 2.134 4.76 4.76 4.76Z"/><path fill="#2DA44E" fill-opacity=".3" d="M1004.33 1041.24h31.73c2.63 0 4.76-2.13 4.76-4.76v-31.73c0-2.63-2.13-4.759-4.76-4.759h-31.73a4.762 4.762 0 0 0-4.757 4.759v31.73c0 2.63 2.137 4.76 4.757 4.76ZM766.339 1041.24h31.731c2.626 0 4.76-2.13 4.76-4.76v-31.73a4.76 4.76 0 0 0-4.76-4.759h-31.731a4.76 4.76 0 0 0-4.76 4.759v31.73c0 2.63 2.134 4.76 4.76 4.76Z"/><path fill="#2DA44E" fill-opacity=".4" d="M1051.93 1136.44h31.73c2.63 0 4.76-2.13 4.76-4.76v-31.73c0-2.63-2.13-4.76-4.76-4.76h-31.73c-2.63 0-4.76 2.13-4.76 4.76v31.73c0 2.63 2.13 4.76 4.76 4.76Z"/><path fill="#2DA44E" fill-opacity=".3" d="M1099.53 1136.44h31.73c2.63 0 4.76-2.13 4.76-4.76v-31.73c0-2.63-2.13-4.76-4.76-4.76h-31.73c-2.63 0-4.76 2.13-4.76 4.76v31.73c0 2.63 2.13 4.76 4.76 4.76ZM718.742 1136.44h31.731c2.626 0 4.76-2.13 4.76-4.76v-31.73c0-2.63-2.134-4.76-4.76-4.76h-31.731a4.761 4.761 0 0 0-4.76 4.76v31.73c0 2.63 2.134 4.76 4.76 4.76Z"/><path fill="#2DA44E" fill-opacity=".6" d="M671.141 1136.44h31.732c2.626 0 4.76-2.13 4.76-4.76v-31.73c0-2.63-2.134-4.76-4.76-4.76h-31.732a4.76 4.76 0 0 0-4.759 4.76v31.73a4.76 4.76 0 0 0 4.759 4.76Z"/><path fill="#2DA44E" fill-opacity=".5" d="M1194.73 1041.24h31.73c2.63 0 4.76-2.13 4.76-4.76v-31.73c0-2.63-2.13-4.759-4.76-4.759h-31.73a4.758 4.758 0 0 0-4.76 4.759v31.73c0 2.63 2.13 4.76 4.76 4.76Z"/><path fill="#2DA44E" fill-opacity=".3" d="M1194.73 1088.84h31.73c2.63 0 4.76-2.13 4.76-4.76v-31.73c0-2.63-2.13-4.76-4.76-4.76h-31.73c-2.63 0-4.76 2.13-4.76 4.76v31.73c0 2.63 2.13 4.76 4.76 4.76Z"/><path fill="#2DA44E" d="M1194.73 1136.44h31.73c2.63 0 4.76-2.13 4.76-4.76v-31.73c0-2.63-2.13-4.76-4.76-4.76h-31.73c-2.63 0-4.76 2.13-4.76 4.76v31.73c0 2.63 2.13 4.76 4.76 4.76ZM623.544 1136.44h31.731c2.626 0 4.76-2.13 4.76-4.76v-31.73c0-2.63-2.134-4.76-4.76-4.76h-31.731a4.761 4.761 0 0 0-4.76 4.76v31.73c0 2.63 2.134 4.76 4.76 4.76Z"/><path fill="#2DA44E" fill-opacity=".3" d="M623.544 1041.24h31.731c2.626 0 4.76-2.13 4.76-4.76v-31.73a4.76 4.76 0 0 0-4.76-4.759h-31.731a4.76 4.76 0 0 0-4.76 4.759v31.73c0 2.63 2.134 4.76 4.76 4.76Z"/><path fill="#2DA44E" d="M1242.32 1041.24h31.74c2.63 0 4.76-2.13 4.76-4.76v-31.73c0-2.63-2.13-4.759-4.76-4.759h-31.74a4.756 4.756 0 0 0-4.75 4.759v31.73c0 2.63 2.13 4.76 4.75 4.76ZM575.945 1184.04h31.732c2.626 0 4.76-2.13 4.76-4.76v-31.73c0-2.63-2.134-4.76-4.76-4.76h-31.732a4.761 4.761 0 0 0-4.76 4.76v31.73c0 2.63 2.134 4.76 4.76 4.76ZM575.945 1136.44h31.732c2.626 0 4.76-2.13 4.76-4.76v-31.73c0-2.63-2.134-4.76-4.76-4.76h-31.732a4.761 4.761 0 0 0-4.76 4.76v31.73c0 2.63 2.134 4.76 4.76 4.76ZM575.945 1088.84h31.732c2.626 0 4.76-2.13 4.76-4.76v-31.73c0-2.63-2.134-4.76-4.76-4.76h-31.732a4.761 4.761 0 0 0-4.76 4.76v31.73c0 2.63 2.134 4.76 4.76 4.76ZM575.945 1041.24h31.732c2.626 0 4.76-2.13 4.76-4.76v-31.73a4.76 4.76 0 0 0-4.76-4.759h-31.732a4.76 4.76 0 0 0-4.76 4.759v31.73c0 2.63 2.134 4.76 4.76 4.76ZM528.345 1279.24h31.732c2.626 0 4.76-2.14 4.76-4.76v-31.74c0-2.63-2.134-4.76-4.76-4.76h-31.732a4.76 4.76 0 0 0-4.759 4.76v31.74c0 2.62 2.134 4.76 4.759 4.76Z"/><path fill="#2DA44E" fill-opacity=".3" d="M528.345 1136.44h31.732c2.626 0 4.76-2.13 4.76-4.76v-31.73c0-2.63-2.134-4.76-4.76-4.76h-31.732a4.76 4.76 0 0 0-4.759 4.76v31.73a4.76 4.76 0 0 0 4.759 4.76Z"/><path fill="#2DA44E" d="M528.345 1088.84h31.732c2.626 0 4.76-2.13 4.76-4.76v-31.73c0-2.63-2.134-4.76-4.76-4.76h-31.732a4.76 4.76 0 0 0-4.759 4.76v31.73a4.76 4.76 0 0 0 4.759 4.76ZM528.345 1041.24h31.732c2.626 0 4.76-2.13 4.76-4.76v-31.73a4.76 4.76 0 0 0-4.76-4.759h-31.732a4.76 4.76 0 0 0-4.759 4.759v31.73a4.76 4.76 0 0 0 4.759 4.76Z"/><path fill="#2DA44E" fill-opacity=".3" d="M528.345 1231.64h31.732c2.626 0 4.76-2.13 4.76-4.76v-31.73c0-2.63-2.134-4.76-4.76-4.76h-31.732a4.76 4.76 0 0 0-4.759 4.76v31.73a4.76 4.76 0 0 0 4.759 4.76Z"/><path fill="#2DA44E" d="M1289.92 850.849h31.74c2.62 0 4.76-2.131 4.76-4.76v-31.732c0-2.629-2.14-4.76-4.76-4.76h-31.74a4.76 4.76 0 0 0-4.76 4.76v31.732a4.76 4.76 0 0 0 4.76 4.76ZM1289.92 1041.24h31.74c2.62 0 4.76-2.13 4.76-4.76v-31.73c0-2.63-2.14-4.759-4.76-4.759h-31.74a4.758 4.758 0 0 0-4.76 4.759v31.73c0 2.63 2.13 4.76 4.76 4.76Z"/><path fill="#2DA44E" fill-opacity=".2" d="M1289.92 1231.64h31.74c2.62 0 4.76-2.13 4.76-4.76v-31.73c0-2.63-2.14-4.76-4.76-4.76h-31.74c-2.63 0-4.76 2.13-4.76 4.76v31.73c0 2.63 2.13 4.76 4.76 4.76Z"/><path fill="#2DA44E" fill-opacity=".5" d="M1289.92 1136.44h31.74c2.62 0 4.76-2.13 4.76-4.76v-31.73c0-2.63-2.14-4.76-4.76-4.76h-31.74c-2.63 0-4.76 2.13-4.76 4.76v31.73c0 2.63 2.13 4.76 4.76 4.76Z"/><path fill="#2DA44E" d="M1289.92 1088.84h31.74c2.62 0 4.76-2.13 4.76-4.76v-31.73c0-2.63-2.14-4.76-4.76-4.76h-31.74c-2.63 0-4.76 2.13-4.76 4.76v31.73c0 2.63 2.13 4.76 4.76 4.76ZM1289.92 1184.04h31.74c2.62 0 4.76-2.13 4.76-4.76v-31.73c0-2.63-2.14-4.76-4.76-4.76h-31.74c-2.63 0-4.76 2.13-4.76 4.76v31.73c0 2.63 2.13 4.76 4.76 4.76ZM1337.52 850.849h31.73a4.76 4.76 0 0 0 4.76-4.76v-31.732a4.76 4.76 0 0 0-4.76-4.76h-31.73a4.76 4.76 0 0 0-4.76 4.76v31.732a4.76 4.76 0 0 0 4.76 4.76ZM1337.52 993.645h31.73a4.76 4.76 0 0 0 4.76-4.76v-31.732a4.76 4.76 0 0 0-4.76-4.76h-31.73a4.76 4.76 0 0 0-4.76 4.76v31.732a4.76 4.76 0 0 0 4.76 4.76Z"/><path fill="#2DA44E" fill-opacity=".5" d="M1337.52 946.046h31.73a4.76 4.76 0 0 0 4.76-4.76v-31.732a4.758 4.758 0 0 0-4.76-4.759h-31.73c-2.63 0-4.76 2.13-4.76 4.759v31.732a4.76 4.76 0 0 0 4.76 4.76Z"/><path fill="#2DA44E" d="M1337.52 1136.44h31.73c2.63 0 4.76-2.13 4.76-4.76v-31.73c0-2.63-2.13-4.76-4.76-4.76h-31.73c-2.63 0-4.76 2.13-4.76 4.76v31.73c0 2.63 2.13 4.76 4.76 4.76ZM1337.52 1184.04h31.73c2.63 0 4.76-2.13 4.76-4.76v-31.73c0-2.63-2.13-4.76-4.76-4.76h-31.73c-2.63 0-4.76 2.13-4.76 4.76v31.73c0 2.63 2.13 4.76 4.76 4.76ZM1337.52 1088.84h31.73c2.63 0 4.76-2.13 4.76-4.76v-31.73c0-2.63-2.13-4.76-4.76-4.76h-31.73c-2.63 0-4.76 2.13-4.76 4.76v31.73c0 2.63 2.13 4.76 4.76 4.76ZM480.748 946.046h31.732a4.762 4.762 0 0 0 4.759-4.76v-31.732a4.76 4.76 0 0 0-4.759-4.759h-31.732a4.76 4.76 0 0 0-4.76 4.759v31.732a4.762 4.762 0 0 0 4.76 4.76ZM480.748 850.849h31.732a4.762 4.762 0 0 0 4.759-4.76v-31.732a4.762 4.762 0 0 0-4.759-4.76h-31.732a4.762 4.762 0 0 0-4.76 4.76v31.732a4.762 4.762 0 0 0 4.76 4.76ZM480.748 993.645h31.732a4.762 4.762 0 0 0 4.759-4.76v-31.732a4.762 4.762 0 0 0-4.759-4.76h-31.732a4.762 4.762 0 0 0-4.76 4.76v31.732a4.762 4.762 0 0 0 4.76 4.76ZM480.748 1136.44h31.732a4.76 4.76 0 0 0 4.759-4.76v-31.73a4.76 4.76 0 0 0-4.759-4.76h-31.732a4.761 4.761 0 0 0-4.76 4.76v31.73c0 2.63 2.134 4.76 4.76 4.76Z"/><path fill="#2DA44E" fill-opacity=".8" d="M480.748 1231.64h31.732a4.76 4.76 0 0 0 4.759-4.76v-31.73a4.76 4.76 0 0 0-4.759-4.76h-31.732a4.761 4.761 0 0 0-4.76 4.76v31.73c0 2.63 2.134 4.76 4.76 4.76Z"/><path fill="#2DA44E" d="M480.748 1184.04h31.732a4.76 4.76 0 0 0 4.759-4.76v-31.73a4.76 4.76 0 0 0-4.759-4.76h-31.732a4.761 4.761 0 0 0-4.76 4.76v31.73c0 2.63 2.134 4.76 4.76 4.76Z"/><path fill="#2DA44E" fill-opacity=".6" d="M1385.12 1231.64h31.73c2.63 0 4.76-2.13 4.76-4.76v-31.73c0-2.63-2.13-4.76-4.76-4.76h-31.73c-2.63 0-4.76 2.13-4.76 4.76v31.73c0 2.63 2.13 4.76 4.76 4.76Z"/><path fill="#2DA44E" fill-opacity=".5" d="M1385.12 993.645h31.73a4.76 4.76 0 0 0 4.76-4.76v-31.732a4.76 4.76 0 0 0-4.76-4.76h-31.73a4.76 4.76 0 0 0-4.76 4.76v31.732a4.76 4.76 0 0 0 4.76 4.76Z"/><path fill="#2DA44E" fill-opacity=".7" d="M1385.12 898.447h31.73c2.63 0 4.76-2.131 4.76-4.759v-31.732a4.76 4.76 0 0 0-4.76-4.76h-31.73a4.76 4.76 0 0 0-4.76 4.76v31.732a4.759 4.759 0 0 0 4.76 4.759Z"/><path fill="#2DA44E" fill-opacity=".5" d="M1385.12 1041.24h31.73c2.63 0 4.76-2.13 4.76-4.76v-31.73c0-2.63-2.13-4.759-4.76-4.759h-31.73a4.758 4.758 0 0 0-4.76 4.759v31.73c0 2.63 2.13 4.76 4.76 4.76Z"/><path fill="#2DA44E" d="M1385.12 946.046h31.73a4.76 4.76 0 0 0 4.76-4.76v-31.732a4.758 4.758 0 0 0-4.76-4.759h-31.73c-2.63 0-4.76 2.13-4.76 4.759v31.732a4.76 4.76 0 0 0 4.76 4.76ZM1385.12 1136.44h31.73c2.63 0 4.76-2.13 4.76-4.76v-31.73c0-2.63-2.13-4.76-4.76-4.76h-31.73c-2.63 0-4.76 2.13-4.76 4.76v31.73c0 2.63 2.13 4.76 4.76 4.76ZM433.149 755.651h31.731a4.76 4.76 0 0 0 4.76-4.759V719.16a4.762 4.762 0 0 0-4.76-4.76h-31.731a4.762 4.762 0 0 0-4.76 4.76v31.732a4.76 4.76 0 0 0 4.76 4.759Z"/><path fill="#2DA44E" fill-opacity=".3" d="M433.149 708.053h31.731a4.762 4.762 0 0 0 4.76-4.76v-31.732a4.762 4.762 0 0 0-4.76-4.76h-31.731a4.762 4.762 0 0 0-4.76 4.76v31.732a4.762 4.762 0 0 0 4.76 4.76Z"/><path fill="#2DA44E" d="M433.149 803.25h31.731a4.762 4.762 0 0 0 4.76-4.76v-31.732a4.762 4.762 0 0 0-4.76-4.759h-31.731a4.762 4.762 0 0 0-4.76 4.759v31.732a4.762 4.762 0 0 0 4.76 4.76ZM433.149 1041.24h31.731c2.626 0 4.76-2.13 4.76-4.76v-31.73a4.76 4.76 0 0 0-4.76-4.759h-31.731a4.76 4.76 0 0 0-4.76 4.759v31.73c0 2.63 2.134 4.76 4.76 4.76ZM433.149 993.645h31.731a4.762 4.762 0 0 0 4.76-4.76v-31.732a4.762 4.762 0 0 0-4.76-4.76h-31.731a4.762 4.762 0 0 0-4.76 4.76v31.732a4.762 4.762 0 0 0 4.76 4.76Z"/><path fill="#2DA44E" fill-opacity=".5" d="M433.149 946.046h31.731a4.762 4.762 0 0 0 4.76-4.76v-31.732a4.76 4.76 0 0 0-4.76-4.759h-31.731a4.76 4.76 0 0 0-4.76 4.759v31.732a4.762 4.762 0 0 0 4.76 4.76ZM433.149 1279.24h31.731c2.626 0 4.76-2.14 4.76-4.76v-31.74c0-2.63-2.134-4.76-4.76-4.76h-31.731a4.761 4.761 0 0 0-4.76 4.76v31.74c0 2.62 2.134 4.76 4.76 4.76Z"/><path fill="#2DA44E" fill-opacity=".4" d="M433.149 1231.64h31.731c2.626 0 4.76-2.13 4.76-4.76v-31.73c0-2.63-2.134-4.76-4.76-4.76h-31.731a4.761 4.761 0 0 0-4.76 4.76v31.73c0 2.63 2.134 4.76 4.76 4.76Z"/><path fill="#2DA44E" d="M433.149 1184.04h31.731c2.626 0 4.76-2.13 4.76-4.76v-31.73c0-2.63-2.134-4.76-4.76-4.76h-31.731a4.761 4.761 0 0 0-4.76 4.76v31.73c0 2.63 2.134 4.76 4.76 4.76Z"/><path fill="#2DA44E" fill-opacity=".3" d="M385.551 993.645h31.732a4.76 4.76 0 0 0 4.759-4.76v-31.732a4.76 4.76 0 0 0-4.759-4.76h-31.732a4.762 4.762 0 0 0-4.76 4.76v31.732a4.762 4.762 0 0 0 4.76 4.76Z"/><path fill="#2DA44E" fill-opacity=".5" d="M385.551 755.651h31.732a4.76 4.76 0 0 0 4.759-4.759V719.16a4.76 4.76 0 0 0-4.759-4.76h-31.732a4.762 4.762 0 0 0-4.76 4.76v31.732a4.76 4.76 0 0 0 4.76 4.759ZM385.551 803.25h31.732a4.76 4.76 0 0 0 4.759-4.76v-31.732a4.76 4.76 0 0 0-4.759-4.759h-31.732a4.762 4.762 0 0 0-4.76 4.759v31.732a4.762 4.762 0 0 0 4.76 4.76Z"/><path fill="#2DA44E" d="M385.551 708.053h31.732a4.76 4.76 0 0 0 4.759-4.76v-31.732a4.76 4.76 0 0 0-4.759-4.76h-31.732a4.762 4.762 0 0 0-4.76 4.76v31.732a4.762 4.762 0 0 0 4.76 4.76Z"/><path fill="#2DA44E" fill-opacity=".7" d="M385.551 850.849h31.732a4.76 4.76 0 0 0 4.759-4.76v-31.732a4.76 4.76 0 0 0-4.759-4.76h-31.732a4.762 4.762 0 0 0-4.76 4.76v31.732a4.762 4.762 0 0 0 4.76 4.76Z"/><path fill="#2DA44E" fill-opacity=".2" d="M385.551 898.447h31.732a4.76 4.76 0 0 0 4.759-4.759v-31.732a4.76 4.76 0 0 0-4.759-4.76h-31.732a4.762 4.762 0 0 0-4.76 4.76v31.732a4.762 4.762 0 0 0 4.76 4.759Z"/><path fill="#2DA44E" d="M385.551 1231.64h31.732a4.76 4.76 0 0 0 4.759-4.76v-31.73a4.76 4.76 0 0 0-4.759-4.76h-31.732a4.761 4.761 0 0 0-4.76 4.76v31.73c0 2.63 2.134 4.76 4.76 4.76ZM385.551 1326.83h31.732a4.76 4.76 0 0 0 4.759-4.76v-31.73a4.76 4.76 0 0 0-4.759-4.76h-31.732a4.761 4.761 0 0 0-4.76 4.76v31.73c0 2.63 2.134 4.76 4.76 4.76Z"/><path fill="#2DA44E" fill-opacity=".5" d="M385.551 1279.24h31.732a4.767 4.767 0 0 0 4.759-4.76v-31.74a4.76 4.76 0 0 0-4.759-4.76h-31.732a4.761 4.761 0 0 0-4.76 4.76v31.74c0 2.62 2.134 4.76 4.76 4.76Z"/><path fill="#2DA44E" d="M385.551 1088.84h31.732a4.76 4.76 0 0 0 4.759-4.76v-31.73a4.76 4.76 0 0 0-4.759-4.76h-31.732a4.761 4.761 0 0 0-4.76 4.76v31.73c0 2.63 2.134 4.76 4.76 4.76Z"/><path fill="#2DA44E" fill-opacity=".5" d="M1432.72 946.046h31.73a4.76 4.76 0 0 0 4.76-4.76v-31.732a4.758 4.758 0 0 0-4.76-4.759h-31.73c-2.63 0-4.76 2.13-4.76 4.759v31.732a4.76 4.76 0 0 0 4.76 4.76Z"/><path fill="#2DA44E" fill-opacity=".3" d="M1432.72 755.651h31.73c2.63 0 4.76-2.13 4.76-4.759V719.16a4.76 4.76 0 0 0-4.76-4.76h-31.73a4.76 4.76 0 0 0-4.76 4.76v31.732a4.758 4.758 0 0 0 4.76 4.759Z"/><path fill="#2DA44E" d="M1432.72 708.053h31.73a4.76 4.76 0 0 0 4.76-4.76v-31.732a4.76 4.76 0 0 0-4.76-4.76h-31.73a4.76 4.76 0 0 0-4.76 4.76v31.732a4.76 4.76 0 0 0 4.76 4.76Z"/><path fill="#2DA44E" fill-opacity=".5" d="M1432.72 850.849h31.73a4.76 4.76 0 0 0 4.76-4.76v-31.732a4.76 4.76 0 0 0-4.76-4.76h-31.73a4.76 4.76 0 0 0-4.76 4.76v31.732a4.76 4.76 0 0 0 4.76 4.76Z"/><path fill="#2DA44E" d="M1432.72 803.25h31.73a4.76 4.76 0 0 0 4.76-4.76v-31.732a4.759 4.759 0 0 0-4.76-4.759h-31.73a4.759 4.759 0 0 0-4.76 4.759v31.732a4.76 4.76 0 0 0 4.76 4.76Z"/><path fill="#2DA44E" fill-opacity=".5" d="M1432.72 1136.44h31.73c2.63 0 4.76-2.13 4.76-4.76v-31.73c0-2.63-2.13-4.76-4.76-4.76h-31.73c-2.63 0-4.76 2.13-4.76 4.76v31.73c0 2.63 2.13 4.76 4.76 4.76ZM1432.72 1088.84h31.73c2.63 0 4.76-2.13 4.76-4.76v-31.73c0-2.63-2.13-4.76-4.76-4.76h-31.73c-2.63 0-4.76 2.13-4.76 4.76v31.73c0 2.63 2.13 4.76 4.76 4.76Z"/><path fill="#2DA44E" d="M1432.72 1184.04h31.73c2.63 0 4.76-2.13 4.76-4.76v-31.73c0-2.63-2.13-4.76-4.76-4.76h-31.73c-2.63 0-4.76 2.13-4.76 4.76v31.73c0 2.63 2.13 4.76 4.76 4.76Z"/><path fill="#2DA44E" fill-opacity=".2" d="M1432.72 1231.64h31.73c2.63 0 4.76-2.13 4.76-4.76v-31.73c0-2.63-2.13-4.76-4.76-4.76h-31.73c-2.63 0-4.76 2.13-4.76 4.76v31.73c0 2.63 2.13 4.76 4.76 4.76Z"/><path fill="#2DA44E" d="M1432.72 1279.24h31.73c2.63 0 4.76-2.14 4.76-4.76v-31.74c0-2.63-2.13-4.76-4.76-4.76h-31.73c-2.63 0-4.76 2.13-4.76 4.76v31.74c0 2.62 2.13 4.76 4.76 4.76Z"/><path fill="#2DA44E" fill-opacity=".3" d="M1432.72 1326.83h31.73c2.63 0 4.76-2.13 4.76-4.76v-31.73c0-2.63-2.13-4.76-4.76-4.76h-31.73c-2.63 0-4.76 2.13-4.76 4.76v31.73c0 2.63 2.13 4.76 4.76 4.76Z"/><path fill="#2DA44E" fill-opacity=".5" d="M337.951 660.455h31.732a4.762 4.762 0 0 0 4.759-4.76v-31.731a4.762 4.762 0 0 0-4.759-4.76h-31.732a4.762 4.762 0 0 0-4.76 4.76v31.731a4.762 4.762 0 0 0 4.76 4.76Z"/><path fill="#2DA44E" d="M337.951 1136.44h31.732a4.76 4.76 0 0 0 4.759-4.76v-31.73a4.76 4.76 0 0 0-4.759-4.76h-31.732a4.761 4.761 0 0 0-4.76 4.76v31.73c0 2.63 2.134 4.76 4.76 4.76ZM337.951 1231.64h31.732a4.76 4.76 0 0 0 4.759-4.76v-31.73a4.76 4.76 0 0 0-4.759-4.76h-31.732a4.761 4.761 0 0 0-4.76 4.76v31.73c0 2.63 2.134 4.76 4.76 4.76Z"/><path fill="#2DA44E" fill-opacity=".5" d="M337.951 1279.24h31.732a4.767 4.767 0 0 0 4.759-4.76v-31.74a4.76 4.76 0 0 0-4.759-4.76h-31.732a4.761 4.761 0 0 0-4.76 4.76v31.74c0 2.62 2.134 4.76 4.76 4.76ZM337.951 1184.04h31.732a4.76 4.76 0 0 0 4.759-4.76v-31.73a4.76 4.76 0 0 0-4.759-4.76h-31.732a4.761 4.761 0 0 0-4.76 4.76v31.73c0 2.63 2.134 4.76 4.76 4.76Z"/><path fill="#2DA44E" d="M337.951 1088.84h31.732a4.76 4.76 0 0 0 4.759-4.76v-31.73a4.76 4.76 0 0 0-4.759-4.76h-31.732a4.761 4.761 0 0 0-4.76 4.76v31.73c0 2.63 2.134 4.76 4.76 4.76ZM337.951 946.046h31.732a4.762 4.762 0 0 0 4.759-4.76v-31.732a4.76 4.76 0 0 0-4.759-4.759h-31.732a4.76 4.76 0 0 0-4.76 4.759v31.732a4.762 4.762 0 0 0 4.76 4.76ZM337.951 898.447h31.732a4.761 4.761 0 0 0 4.759-4.759v-31.732a4.762 4.762 0 0 0-4.759-4.76h-31.732a4.762 4.762 0 0 0-4.76 4.76v31.732a4.762 4.762 0 0 0 4.76 4.759Z"/><path fill="#2DA44E" fill-opacity=".5" d="M337.951 850.849h31.732a4.762 4.762 0 0 0 4.759-4.76v-31.732a4.762 4.762 0 0 0-4.759-4.76h-31.732a4.762 4.762 0 0 0-4.76 4.76v31.732a4.762 4.762 0 0 0 4.76 4.76Z"/><path fill="#2DA44E" d="M337.951 803.25h31.732a4.762 4.762 0 0 0 4.759-4.76v-31.732a4.761 4.761 0 0 0-4.759-4.759h-31.732a4.762 4.762 0 0 0-4.76 4.759v31.732a4.762 4.762 0 0 0 4.76 4.76Z"/><path fill="#2DA44E" fill-opacity=".3" d="M337.951 755.651h31.732a4.76 4.76 0 0 0 4.759-4.759V719.16a4.762 4.762 0 0 0-4.759-4.76h-31.732a4.762 4.762 0 0 0-4.76 4.76v31.732a4.76 4.76 0 0 0 4.76 4.759Z"/><path fill="#2DA44E" fill-opacity=".5" d="M1480.32 1088.84h31.73c2.63 0 4.76-2.13 4.76-4.76v-31.73c0-2.63-2.13-4.76-4.76-4.76h-31.73c-2.63 0-4.76 2.13-4.76 4.76v31.73c0 2.63 2.13 4.76 4.76 4.76ZM1480.32 993.645h31.73a4.76 4.76 0 0 0 4.76-4.76v-31.732a4.76 4.76 0 0 0-4.76-4.76h-31.73a4.76 4.76 0 0 0-4.76 4.76v31.732a4.76 4.76 0 0 0 4.76 4.76Z"/><path fill="#2DA44E" fill-opacity=".8" d="M1480.32 1041.24h31.73c2.63 0 4.76-2.13 4.76-4.76v-31.73c0-2.63-2.13-4.759-4.76-4.759h-31.73a4.758 4.758 0 0 0-4.76 4.759v31.73c0 2.63 2.13 4.76 4.76 4.76Z"/><path fill="#2DA44E" d="M1480.32 755.651h31.73c2.63 0 4.76-2.13 4.76-4.759V719.16a4.76 4.76 0 0 0-4.76-4.76h-31.73a4.76 4.76 0 0 0-4.76 4.76v31.732a4.758 4.758 0 0 0 4.76 4.759Z"/><path fill="#2DA44E" fill-opacity=".3" d="M1480.32 708.053h31.73a4.76 4.76 0 0 0 4.76-4.76v-31.732a4.76 4.76 0 0 0-4.76-4.76h-31.73a4.76 4.76 0 0 0-4.76 4.76v31.732a4.76 4.76 0 0 0 4.76 4.76Z"/><path fill="#2DA44E" d="M1480.32 660.455h31.73a4.76 4.76 0 0 0 4.76-4.76v-31.731a4.76 4.76 0 0 0-4.76-4.76h-31.73a4.76 4.76 0 0 0-4.76 4.76v31.731a4.76 4.76 0 0 0 4.76 4.76Z"/><path fill="#2DA44E" fill-opacity=".5" d="M1480.32 850.849h31.73a4.76 4.76 0 0 0 4.76-4.76v-31.732a4.76 4.76 0 0 0-4.76-4.76h-31.73a4.76 4.76 0 0 0-4.76 4.76v31.732a4.76 4.76 0 0 0 4.76 4.76Z"/><path fill="#2DA44E" d="M1480.32 803.25h31.73a4.76 4.76 0 0 0 4.76-4.76v-31.732a4.759 4.759 0 0 0-4.76-4.759h-31.73a4.759 4.759 0 0 0-4.76 4.759v31.732a4.76 4.76 0 0 0 4.76 4.76ZM1480.32 1184.04h31.73c2.63 0 4.76-2.13 4.76-4.76v-31.73c0-2.63-2.13-4.76-4.76-4.76h-31.73c-2.63 0-4.76 2.13-4.76 4.76v31.73c0 2.63 2.13 4.76 4.76 4.76Z"/><path fill="#2DA44E" fill-opacity=".2" d="M1480.32 1231.64h31.73c2.63 0 4.76-2.13 4.76-4.76v-31.73c0-2.63-2.13-4.76-4.76-4.76h-31.73c-2.63 0-4.76 2.13-4.76 4.76v31.73c0 2.63 2.13 4.76 4.76 4.76Z"/><path fill="#2DA44E" d="M1480.32 1279.24h31.73c2.63 0 4.76-2.14 4.76-4.76v-31.74c0-2.63-2.13-4.76-4.76-4.76h-31.73c-2.63 0-4.76 2.13-4.76 4.76v31.74c0 2.62 2.13 4.76 4.76 4.76Z"/><path fill="#2DA44E" fill-opacity=".5" d="M290.351 1326.83h31.732a4.76 4.76 0 0 0 4.759-4.76v-31.73a4.76 4.76 0 0 0-4.759-4.76h-31.732a4.761 4.761 0 0 0-4.76 4.76v31.73c0 2.63 2.134 4.76 4.76 4.76Z"/><path fill="#2DA44E" d="M322.083 809.597h-31.732a4.762 4.762 0 0 0-4.76 4.76v31.732a4.762 4.762 0 0 0 4.76 4.76h31.732a4.762 4.762 0 0 0 4.759-4.76v-31.732a4.762 4.762 0 0 0-4.759-4.76ZM322.083 714.4h-31.732a4.762 4.762 0 0 0-4.76 4.76v31.732a4.76 4.76 0 0 0 4.76 4.759h31.732a4.76 4.76 0 0 0 4.759-4.759V719.16a4.762 4.762 0 0 0-4.759-4.76Z"/><path fill="#2DA44E" fill-opacity=".5" d="M322.083 666.801h-31.732a4.762 4.762 0 0 0-4.76 4.76v31.732a4.762 4.762 0 0 0 4.76 4.76h31.732a4.762 4.762 0 0 0 4.759-4.76v-31.732a4.762 4.762 0 0 0-4.759-4.76ZM322.083 761.999h-31.732a4.762 4.762 0 0 0-4.76 4.759v31.732a4.762 4.762 0 0 0 4.76 4.76h31.732a4.762 4.762 0 0 0 4.759-4.76v-31.732a4.761 4.761 0 0 0-4.759-4.759Z"/><path fill="#2DA44E" d="M322.083 857.196h-31.732a4.762 4.762 0 0 0-4.76 4.76v31.732a4.762 4.762 0 0 0 4.76 4.759h31.732a4.761 4.761 0 0 0 4.759-4.759v-31.732a4.762 4.762 0 0 0-4.759-4.76ZM322.083 999.991h-31.732a4.76 4.76 0 0 0-4.76 4.759v31.73c0 2.63 2.134 4.76 4.76 4.76h31.732a4.76 4.76 0 0 0 4.759-4.76v-31.73a4.76 4.76 0 0 0-4.759-4.759ZM322.083 1047.59h-31.732a4.761 4.761 0 0 0-4.76 4.76v31.73c0 2.63 2.134 4.76 4.76 4.76h31.732a4.76 4.76 0 0 0 4.759-4.76v-31.73a4.76 4.76 0 0 0-4.759-4.76Z"/><path fill="#2DA44E" fill-opacity=".5" d="M322.083 1095.19h-31.732a4.761 4.761 0 0 0-4.76 4.76v31.73c0 2.63 2.134 4.76 4.76 4.76h31.732a4.76 4.76 0 0 0 4.759-4.76v-31.73a4.76 4.76 0 0 0-4.759-4.76Z"/><path fill="#2DA44E" d="M322.083 1142.79h-31.732a4.761 4.761 0 0 0-4.76 4.76v31.73c0 2.63 2.134 4.76 4.76 4.76h31.732a4.76 4.76 0 0 0 4.759-4.76v-31.73a4.76 4.76 0 0 0-4.759-4.76Z"/><path fill="#2DA44E" fill-opacity=".3" d="M290.351 1231.64h31.732a4.76 4.76 0 0 0 4.759-4.76v-31.73a4.76 4.76 0 0 0-4.759-4.76h-31.732a4.761 4.761 0 0 0-4.76 4.76v31.73c0 2.63 2.134 4.76 4.76 4.76Z"/><path fill="#2DA44E" fill-opacity=".5" d="M1559.65 1047.59h-31.73c-2.63 0-4.76 2.13-4.76 4.76v31.73c0 2.63 2.13 4.76 4.76 4.76h31.73c2.63 0 4.76-2.13 4.76-4.76v-31.73c0-2.63-2.13-4.76-4.76-4.76Z"/><path fill="#2DA44E" fill-opacity=".3" d="M1559.65 1237.98h-31.73c-2.63 0-4.76 2.13-4.76 4.76v31.74c0 2.62 2.13 4.76 4.76 4.76h31.73c2.63 0 4.76-2.14 4.76-4.76v-31.74c0-2.63-2.13-4.76-4.76-4.76Z"/><path fill="#2DA44E" d="M1559.65 1285.58h-31.73c-2.63 0-4.76 2.13-4.76 4.76v31.73c0 2.63 2.13 4.76 4.76 4.76h31.73c2.63 0 4.76-2.13 4.76-4.76v-31.73c0-2.63-2.13-4.76-4.76-4.76Z"/><path fill="#2DA44E" fill-opacity=".5" d="M1559.65 1142.79h-31.73c-2.63 0-4.76 2.13-4.76 4.76v31.73c0 2.63 2.13 4.76 4.76 4.76h31.73c2.63 0 4.76-2.13 4.76-4.76v-31.73c0-2.63-2.13-4.76-4.76-4.76Z"/><path fill="#2DA44E" d="M1559.65 1190.39h-31.73c-2.63 0-4.76 2.13-4.76 4.76v31.73c0 2.63 2.13 4.76 4.76 4.76h31.73c2.63 0 4.76-2.13 4.76-4.76v-31.73c0-2.63-2.13-4.76-4.76-4.76Z"/><path fill="#2DA44E" fill-opacity=".5" d="M1559.65 904.795h-31.73c-2.63 0-4.76 2.13-4.76 4.759v31.732a4.76 4.76 0 0 0 4.76 4.76h31.73a4.76 4.76 0 0 0 4.76-4.76v-31.732a4.758 4.758 0 0 0-4.76-4.759ZM1559.65 952.393h-31.73a4.76 4.76 0 0 0-4.76 4.76v31.732a4.76 4.76 0 0 0 4.76 4.76h31.73a4.76 4.76 0 0 0 4.76-4.76v-31.732a4.76 4.76 0 0 0-4.76-4.76Z"/><path fill="#2DA44E" fill-opacity=".2" d="M1559.65 809.597h-31.73a4.76 4.76 0 0 0-4.76 4.76v31.732a4.76 4.76 0 0 0 4.76 4.76h31.73a4.76 4.76 0 0 0 4.76-4.76v-31.732a4.76 4.76 0 0 0-4.76-4.76Z"/><path fill="#2DA44E" d="M1559.65 857.196h-31.73a4.76 4.76 0 0 0-4.76 4.76v31.732a4.759 4.759 0 0 0 4.76 4.759h31.73c2.63 0 4.76-2.131 4.76-4.759v-31.732a4.76 4.76 0 0 0-4.76-4.76ZM1559.65 761.999h-31.73a4.759 4.759 0 0 0-4.76 4.759v31.732a4.76 4.76 0 0 0 4.76 4.76h31.73a4.76 4.76 0 0 0 4.76-4.76v-31.732a4.759 4.759 0 0 0-4.76-4.759Z"/><path fill="#2DA44E" fill-opacity=".3" d="M1559.65 714.4h-31.73a4.76 4.76 0 0 0-4.76 4.76v31.732a4.758 4.758 0 0 0 4.76 4.759h31.73c2.63 0 4.76-2.13 4.76-4.759V719.16a4.76 4.76 0 0 0-4.76-4.76ZM274.486 904.795h-31.731a4.76 4.76 0 0 0-4.76 4.759v31.732a4.762 4.762 0 0 0 4.76 4.76h31.731a4.762 4.762 0 0 0 4.76-4.76v-31.732a4.76 4.76 0 0 0-4.76-4.759Z"/><path fill="#2DA44E" fill-opacity=".5" d="M242.755 1231.64h31.731c2.626 0 4.76-2.13 4.76-4.76v-31.73c0-2.63-2.134-4.76-4.76-4.76h-31.731a4.761 4.761 0 0 0-4.76 4.76v31.73c0 2.63 2.134 4.76 4.76 4.76ZM274.486 1142.79h-31.731a4.761 4.761 0 0 0-4.76 4.76v31.73c0 2.63 2.134 4.76 4.76 4.76h31.731c2.626 0 4.76-2.13 4.76-4.76v-31.73c0-2.63-2.134-4.76-4.76-4.76Z"/><path fill="#2DA44E" d="M242.755 1279.24h31.731c2.626 0 4.76-2.14 4.76-4.76v-31.74c0-2.63-2.134-4.76-4.76-4.76h-31.731a4.761 4.761 0 0 0-4.76 4.76v31.74c0 2.62 2.134 4.76 4.76 4.76Z"/><path fill="#2DA44E" fill-opacity=".7" d="M274.486 1095.19h-31.731a4.761 4.761 0 0 0-4.76 4.76v31.73c0 2.63 2.134 4.76 4.76 4.76h31.731c2.626 0 4.76-2.13 4.76-4.76v-31.73c0-2.63-2.134-4.76-4.76-4.76Z"/><path fill="#2DA44E" fill-opacity=".2" d="M274.486 1047.59h-31.731a4.761 4.761 0 0 0-4.76 4.76v31.73c0 2.63 2.134 4.76 4.76 4.76h31.731c2.626 0 4.76-2.13 4.76-4.76v-31.73c0-2.63-2.134-4.76-4.76-4.76Z"/><path fill="#2DA44E" d="M274.486 714.4h-31.731a4.762 4.762 0 0 0-4.76 4.76v31.732a4.76 4.76 0 0 0 4.76 4.759h31.731a4.76 4.76 0 0 0 4.76-4.759V719.16a4.762 4.762 0 0 0-4.76-4.76ZM274.486 619.204h-31.731a4.762 4.762 0 0 0-4.76 4.76v31.731a4.762 4.762 0 0 0 4.76 4.76h31.731a4.762 4.762 0 0 0 4.76-4.76v-31.731a4.762 4.762 0 0 0-4.76-4.76Z"/><path fill="#2DA44E" fill-opacity=".5" d="M274.486 666.801h-31.731a4.762 4.762 0 0 0-4.76 4.76v31.732a4.762 4.762 0 0 0 4.76 4.76h31.731a4.762 4.762 0 0 0 4.76-4.76v-31.732a4.762 4.762 0 0 0-4.76-4.76Z"/><path fill="#2DA44E" d="M274.486 809.597h-31.731a4.762 4.762 0 0 0-4.76 4.76v31.732a4.762 4.762 0 0 0 4.76 4.76h31.731a4.762 4.762 0 0 0 4.76-4.76v-31.732a4.762 4.762 0 0 0-4.76-4.76Z"/><path fill="#2DA44E" fill-opacity=".6" d="M1607.25 761.999h-31.73a4.759 4.759 0 0 0-4.76 4.759v31.732a4.76 4.76 0 0 0 4.76 4.76h31.73a4.76 4.76 0 0 0 4.76-4.76v-31.732a4.759 4.759 0 0 0-4.76-4.759Z"/><path fill="#2DA44E" d="M1607.25 857.196h-31.73a4.76 4.76 0 0 0-4.76 4.76v31.732a4.759 4.759 0 0 0 4.76 4.759h31.73c2.63 0 4.76-2.131 4.76-4.759v-31.732a4.76 4.76 0 0 0-4.76-4.76Z"/><path fill="#2DA44E" fill-opacity=".5" d="M1607.25 999.991h-31.73a4.758 4.758 0 0 0-4.76 4.759v31.73c0 2.63 2.13 4.76 4.76 4.76h31.73c2.63 0 4.76-2.13 4.76-4.76v-31.73c0-2.63-2.13-4.759-4.76-4.759ZM1607.25 1047.59h-31.73c-2.63 0-4.76 2.13-4.76 4.76v31.73c0 2.63 2.13 4.76 4.76 4.76h31.73c2.63 0 4.76-2.13 4.76-4.76v-31.73c0-2.63-2.13-4.76-4.76-4.76Z"/><path fill="#2DA44E" d="M1607.25 1095.19h-31.73c-2.63 0-4.76 2.13-4.76 4.76v31.73c0 2.63 2.13 4.76 4.76 4.76h31.73c2.63 0 4.76-2.13 4.76-4.76v-31.73c0-2.63-2.13-4.76-4.76-4.76Z"/><path fill="#2DA44E" fill-opacity=".7" d="M1575.52 1184.04h31.73c2.63 0 4.76-2.13 4.76-4.76v-31.73c0-2.63-2.13-4.76-4.76-4.76h-31.73c-2.63 0-4.76 2.13-4.76 4.76v31.73c0 2.63 2.13 4.76 4.76 4.76Z"/><path fill="#2DA44E" d="M226.888 1142.79h-31.732a4.76 4.76 0 0 0-4.759 4.76v31.73a4.76 4.76 0 0 0 4.759 4.76h31.732c2.626 0 4.76-2.13 4.76-4.76v-31.73c0-2.63-2.134-4.76-4.76-4.76Z"/><path fill="#2DA44E" fill-opacity=".3" d="M195.156 1231.64h31.732c2.626 0 4.76-2.13 4.76-4.76v-31.73c0-2.63-2.134-4.76-4.76-4.76h-31.732a4.76 4.76 0 0 0-4.759 4.76v31.73a4.76 4.76 0 0 0 4.759 4.76Z"/><path fill="#2DA44E" d="M226.888 1095.19h-31.732a4.76 4.76 0 0 0-4.759 4.76v31.73a4.76 4.76 0 0 0 4.759 4.76h31.732c2.626 0 4.76-2.13 4.76-4.76v-31.73c0-2.63-2.134-4.76-4.76-4.76ZM226.888 904.795h-31.732a4.76 4.76 0 0 0-4.759 4.759v31.732a4.762 4.762 0 0 0 4.759 4.76h31.732a4.762 4.762 0 0 0 4.76-4.76v-31.732a4.76 4.76 0 0 0-4.76-4.759ZM226.888 952.393h-31.732a4.762 4.762 0 0 0-4.759 4.76v31.732a4.762 4.762 0 0 0 4.759 4.76h31.732a4.762 4.762 0 0 0 4.76-4.76v-31.732a4.762 4.762 0 0 0-4.76-4.76Z"/><path fill="#2DA44E" fill-opacity=".5" d="M226.888 999.991h-31.732a4.76 4.76 0 0 0-4.759 4.759v31.73a4.76 4.76 0 0 0 4.759 4.76h31.732c2.626 0 4.76-2.13 4.76-4.76v-31.73a4.76 4.76 0 0 0-4.76-4.759ZM226.888 666.801h-31.732a4.762 4.762 0 0 0-4.759 4.76v31.732a4.762 4.762 0 0 0 4.759 4.76h31.732a4.762 4.762 0 0 0 4.76-4.76v-31.732a4.762 4.762 0 0 0-4.76-4.76Z"/><path fill="#2DA44E" fill-opacity=".4" d="M226.888 714.4h-31.732a4.762 4.762 0 0 0-4.759 4.76v31.732a4.76 4.76 0 0 0 4.759 4.759h31.732a4.76 4.76 0 0 0 4.76-4.759V719.16a4.762 4.762 0 0 0-4.76-4.76Z"/><path fill="#2DA44E" d="M226.888 761.999h-31.732a4.761 4.761 0 0 0-4.759 4.759v31.732a4.762 4.762 0 0 0 4.759 4.76h31.732a4.762 4.762 0 0 0 4.76-4.76v-31.732a4.762 4.762 0 0 0-4.76-4.759ZM1654.85 1190.39h-31.74c-2.63 0-4.76 2.13-4.76 4.76v31.73c0 2.63 2.13 4.76 4.76 4.76h31.74c2.62 0 4.76-2.13 4.76-4.76v-31.73c0-2.63-2.14-4.76-4.76-4.76ZM1654.85 1047.59h-31.74c-2.63 0-4.76 2.13-4.76 4.76v31.73c0 2.63 2.13 4.76 4.76 4.76h31.74c2.62 0 4.76-2.13 4.76-4.76v-31.73c0-2.63-2.14-4.76-4.76-4.76Z"/><path fill="#2DA44E" fill-opacity=".5" d="M1654.85 1095.19h-31.74c-2.63 0-4.76 2.13-4.76 4.76v31.73c0 2.63 2.13 4.76 4.76 4.76h31.74c2.62 0 4.76-2.13 4.76-4.76v-31.73c0-2.63-2.14-4.76-4.76-4.76Z"/><path fill="#2DA44E" d="M1654.85 857.196h-31.74a4.76 4.76 0 0 0-4.76 4.76v31.732a4.759 4.759 0 0 0 4.76 4.759h31.74c2.62 0 4.76-2.131 4.76-4.759v-31.732c0-2.629-2.14-4.76-4.76-4.76ZM1654.85 809.597h-31.74a4.76 4.76 0 0 0-4.76 4.76v31.732a4.76 4.76 0 0 0 4.76 4.76h31.74c2.62 0 4.76-2.131 4.76-4.76v-31.732c0-2.629-2.14-4.76-4.76-4.76ZM1654.85 904.795h-31.74c-2.63 0-4.76 2.13-4.76 4.759v31.732a4.76 4.76 0 0 0 4.76 4.76h31.74c2.62 0 4.76-2.131 4.76-4.76v-31.732a4.765 4.765 0 0 0-4.76-4.759ZM179.289 1095.19h-31.731a4.761 4.761 0 0 0-4.76 4.76v31.73c0 2.63 2.134 4.76 4.76 4.76h31.731c2.626 0 4.76-2.13 4.76-4.76v-31.73c0-2.63-2.134-4.76-4.76-4.76Z"/><path fill="#2DA44E" fill-opacity=".5" d="M179.289 1142.79h-31.731a4.761 4.761 0 0 0-4.76 4.76v31.73c0 2.63 2.134 4.76 4.76 4.76h31.731c2.626 0 4.76-2.13 4.76-4.76v-31.73c0-2.63-2.134-4.76-4.76-4.76Z"/><path fill="#2DA44E" d="M147.558 1231.64h31.731c2.626 0 4.76-2.13 4.76-4.76v-31.73c0-2.63-2.134-4.76-4.76-4.76h-31.731a4.761 4.761 0 0 0-4.76 4.76v31.73c0 2.63 2.134 4.76 4.76 4.76ZM179.289 1047.59h-31.731a4.761 4.761 0 0 0-4.76 4.76v31.73c0 2.63 2.134 4.76 4.76 4.76h31.731c2.626 0 4.76-2.13 4.76-4.76v-31.73c0-2.63-2.134-4.76-4.76-4.76ZM179.289 952.393h-31.731a4.762 4.762 0 0 0-4.76 4.76v31.732a4.762 4.762 0 0 0 4.76 4.76h31.731a4.762 4.762 0 0 0 4.76-4.76v-31.732a4.762 4.762 0 0 0-4.76-4.76Z"/><path fill="#2DA44E" fill-opacity=".8" d="M179.289 857.196h-31.731a4.762 4.762 0 0 0-4.76 4.76v31.732a4.762 4.762 0 0 0 4.76 4.759h31.731a4.762 4.762 0 0 0 4.76-4.759v-31.732a4.762 4.762 0 0 0-4.76-4.76Z"/><path fill="#2DA44E" d="M179.289 904.795h-31.731a4.76 4.76 0 0 0-4.76 4.759v31.732a4.762 4.762 0 0 0 4.76 4.76h31.731a4.762 4.762 0 0 0 4.76-4.76v-31.732a4.76 4.76 0 0 0-4.76-4.759ZM1702.44 1142.79h-31.73c-2.63 0-4.76 2.13-4.76 4.76v31.73c0 2.63 2.13 4.76 4.76 4.76h31.73c2.63 0 4.76-2.13 4.76-4.76v-31.73c0-2.63-2.13-4.76-4.76-4.76Z"/><path fill="#2DA44E" fill-opacity=".3" d="M1702.44 1047.59h-31.73c-2.63 0-4.76 2.13-4.76 4.76v31.73c0 2.63 2.13 4.76 4.76 4.76h31.73c2.63 0 4.76-2.13 4.76-4.76v-31.73c0-2.63-2.13-4.76-4.76-4.76Z"/><path fill="#2DA44E" d="M1702.44 999.991h-31.73a4.758 4.758 0 0 0-4.76 4.759v31.73c0 2.63 2.13 4.76 4.76 4.76h31.73c2.63 0 4.76-2.13 4.76-4.76v-31.73c0-2.63-2.13-4.759-4.76-4.759Z"/><path fill="#2DA44E" fill-opacity=".5" d="M1702.44 904.795h-31.73c-2.63 0-4.76 2.13-4.76 4.759v31.732a4.76 4.76 0 0 0 4.76 4.76h31.73a4.76 4.76 0 0 0 4.76-4.76v-31.732a4.758 4.758 0 0 0-4.76-4.759Z"/><path fill="#2DA44E" d="M1702.44 952.393h-31.73a4.76 4.76 0 0 0-4.76 4.76v31.732a4.76 4.76 0 0 0 4.76 4.76h31.73a4.76 4.76 0 0 0 4.76-4.76v-31.732a4.76 4.76 0 0 0-4.76-4.76Z"/><path fill="#2DA44E" fill-opacity=".2" d="M1702.44 809.597h-31.73a4.76 4.76 0 0 0-4.76 4.76v31.732a4.76 4.76 0 0 0 4.76 4.76h31.73a4.76 4.76 0 0 0 4.76-4.76v-31.732a4.76 4.76 0 0 0-4.76-4.76Z"/><path fill="#2DA44E" d="M1702.44 857.196h-31.73a4.76 4.76 0 0 0-4.76 4.76v31.732a4.759 4.759 0 0 0 4.76 4.759h31.73c2.63 0 4.76-2.131 4.76-4.759v-31.732a4.76 4.76 0 0 0-4.76-4.76ZM131.69 1142.79H99.959a4.761 4.761 0 0 0-4.76 4.76v31.73c0 2.63 2.134 4.76 4.76 4.76h31.731c2.626 0 4.76-2.13 4.76-4.76v-31.73c0-2.63-2.134-4.76-4.76-4.76ZM131.69 904.795H99.959a4.76 4.76 0 0 0-4.76 4.759v31.732a4.762 4.762 0 0 0 4.76 4.76h31.731a4.762 4.762 0 0 0 4.76-4.76v-31.732a4.76 4.76 0 0 0-4.76-4.759ZM131.69 952.393H99.959a4.762 4.762 0 0 0-4.76 4.76v31.732a4.762 4.762 0 0 0 4.76 4.76h31.731a4.762 4.762 0 0 0 4.76-4.76v-31.732a4.762 4.762 0 0 0-4.76-4.76Z"/><path fill="#2DA44E" fill-opacity=".7" d="M131.69 1095.19H99.959a4.761 4.761 0 0 0-4.76 4.76v31.73c0 2.63 2.134 4.76 4.76 4.76h31.731c2.626 0 4.76-2.13 4.76-4.76v-31.73c0-2.63-2.134-4.76-4.76-4.76Z"/><path fill="#2DA44E" d="M131.69 999.991H99.959a4.76 4.76 0 0 0-4.76 4.759v31.73c0 2.63 2.134 4.76 4.76 4.76h31.731c2.626 0 4.76-2.13 4.76-4.76v-31.73a4.76 4.76 0 0 0-4.76-4.759Z"/><path fill="#2DA44E" fill-opacity=".3" d="M131.69 1047.59H99.959a4.761 4.761 0 0 0-4.76 4.76v31.73c0 2.63 2.134 4.76 4.76 4.76h31.731c2.626 0 4.76-2.13 4.76-4.76v-31.73c0-2.63-2.134-4.76-4.76-4.76Z"/><path fill="#2DA44E" d="M1750.04 999.991h-31.73a4.758 4.758 0 0 0-4.76 4.759v31.73c0 2.63 2.13 4.76 4.76 4.76h31.73c2.63 0 4.76-2.13 4.76-4.76v-31.73c0-2.63-2.13-4.759-4.76-4.759ZM84.089 1000.78H52.357a4.767 4.767 0 0 0-4.76 4.76v31.74c0 2.63 2.134 4.76 4.76 4.76H84.09c2.626 0 4.76-2.13 4.76-4.76v-31.74c0-2.62-2.134-4.76-4.76-4.76Z"/><path fill="#2DA44E" fill-opacity=".5" d="M84.089 1095.19H52.357a4.761 4.761 0 0 0-4.76 4.76v31.73c0 2.63 2.134 4.76 4.76 4.76H84.09c2.626 0 4.76-2.13 4.76-4.76v-31.73c0-2.63-2.134-4.76-4.76-4.76Z"/><path fill="#2DA44E" d="M1797.64 999.991h-31.73a4.758 4.758 0 0 0-4.76 4.759v31.73c0 2.63 2.13 4.76 4.76 4.76h31.73c2.63 0 4.76-2.13 4.76-4.76v-31.73c0-2.63-2.13-4.759-4.76-4.759ZM1797.64 952.393h-31.73a4.76 4.76 0 0 0-4.76 4.76v31.732a4.76 4.76 0 0 0 4.76 4.76h31.73a4.76 4.76 0 0 0 4.76-4.76v-31.732a4.76 4.76 0 0 0-4.76-4.76ZM1797.64 904.795h-31.73c-2.63 0-4.76 2.13-4.76 4.759v31.732a4.76 4.76 0 0 0 4.76 4.76h31.73a4.76 4.76 0 0 0 4.76-4.76v-31.732a4.758 4.758 0 0 0-4.76-4.759Z"/><path fill="#2DA44E" fill-opacity=".2" d="M36.493 1048.38H4.76a4.761 4.761 0 0 0-4.76 4.76v31.74c0 2.62 2.134 4.75 4.76 4.75h31.732c2.626 0 4.76-2.13 4.76-4.75v-31.74c0-2.63-2.134-4.76-4.76-4.76Z"/><path fill="#2DA44E" d="M36.493 1000.78H4.76a4.767 4.767 0 0 0-4.76 4.76v31.74c0 2.63 2.134 4.76 4.76 4.76h31.732c2.626 0 4.76-2.13 4.76-4.76v-31.74c0-2.62-2.134-4.76-4.76-4.76Z"/><path fill="#2DA44E" fill-opacity=".3" d="M1845.24 952.393h-31.73a4.76 4.76 0 0 0-4.76 4.76v31.732a4.76 4.76 0 0 0 4.76 4.76h31.73a4.76 4.76 0 0 0 4.76-4.76v-31.732a4.76 4.76 0 0 0-4.76-4.76Z"/><g clip-path="url(#a)"><path fill="#42D392" d="M1129.09 609.102c0 18.728-120.17 17.228-120.17 0 0-10.897-3.12-18.963-6.82-27.059-3.549-8.097-8.52-15.057-14.912-20.881-6.25-5.966-13.85-10.511-22.799-13.636-8.949-3.267-19.105-4.901-30.469-4.901-19.886 0-36.718 4.83-50.497 14.489-13.636 9.659-24.005 23.508-31.108 41.548-6.96 18.04-10.44 39.702-10.44 64.986 0 26.704 3.551 49.076 10.653 67.116 7.245 17.898 17.685 31.392 31.321 40.483 13.637 8.949 30.043 13.423 49.219 13.423 10.938 0 20.739-1.349 29.404-4.048 8.664-2.841 16.193-6.889 22.585-12.145 6.392-5.255 11.577-11.576 15.553-18.963 4.12-7.528 8.31-14.184 8.31-25.355 0-11.17 120.17-16.329 120.17.852 0 17.182-6.6 37.287-15.55 56.463-8.95 19.035-21.67 36.648-38.14 52.841-16.34 16.051-36.58 28.978-60.73 38.779-24.144 9.801-52.198 14.701-84.159 14.701-40.056 0-75.994-8.593-107.812-25.781-31.676-17.187-56.747-42.471-75.213-75.852C729.162 752.781 720 711.943 720 663.648c0-48.58 9.375-89.489 28.125-122.728 18.75-33.38 44.034-58.593 75.852-75.639 31.818-17.187 67.33-25.781 106.534-25.781 27.557 0 52.912 3.764 76.069 11.293 23.15 7.528 43.46 18.537 60.93 33.025 17.48 14.347 31.54 32.031 42.19 53.054 10.66 21.023 19.39 53.503 19.39 72.23Z"/><path fill="url(#b)" d="M1035.5 620.5s-27-4-27-12-1.5-27.5-19.5-45-38.5-21.5-58.5-21.5-20.255-37.409-35-61c-15.187-24.3-64-12-70-15-3.351-1.676 29.942-15.097 50-20 19.855-4.853 44.027-7 52-7 18.062 0 29.091 1.653 47 4 25 3.277 43 10.5 67 23 23.8 12.397 34.95 24.375 51.5 45.5 8.72 11.128 13.42 17.738 19.5 30.5 7.12 14.942 9.12 24.296 12.5 40.5 2.5 12 6.5 27.5 1.5 31s-20.85 6.873-33.5 8.5c-22.27 2.864-57.5-1.5-57.5-1.5Z"/><path fill="url(#c)" d="M1031.64 716.827S1009 719.5 1009 724.5s-3 21.5-17.5 38-40.5 23.5-59.5 22-12.152 41.322-25.312 63.506C893.132 870.856 837 860.39 837 866c0 5.611 30.597 13.128 48.5 17.739 17.721 4.564 42.633 3.761 49.749 3.761 16.121 0 25.965-1.554 41.949-3.761 22.314-3.081 38.382-9.874 59.802-21.628 21.24-11.658 36-23.611 52.5-42.611 8.55-9.846 11-14.5 17.5-25 8.12-13.112 9.59-23.137 15.5-37.5 3.5-8.5 9.96-31.208 5.5-34.5-4.46-3.291-26.27-8.5-43.5-8.5-17.5 0-52.86 2.827-52.86 2.827Z"/></g><defs><linearGradient id="b" x1="977.079" x2="977.079" y1="439" y2="622.974" gradientUnits="userSpaceOnUse"><stop stop-color="#647EFF"/><stop offset="1" stop-color="#0B2E59" stop-opacity="0"/><stop offset="1" stop-color="#647EFF" stop-opacity="0"/></linearGradient><linearGradient id="c" x1="979.5" x2="979.5" y1="887.5" y2="714.501" gradientUnits="userSpaceOnUse"><stop stop-color="#647EFF"/><stop offset="1" stop-color="#647EFF" stop-opacity="0"/></linearGradient><clipPath id="a"><path fill="#fff" d="M720 439h409.517v448.795H720z"/></clipPath></defs></svg>