<svg xmlns="http://www.w3.org/2000/svg" width="410" height="449" fill="none" viewBox="0 0 410 449"><path fill="#42D392" d="M409.091 170.102C409.091 188.83 288.92 187.33 288.92 170.102C288.92 159.205 285.795 151.139 282.102 143.043C278.551 134.946 273.58 127.986 267.188 122.162C260.938 116.196 253.338 111.651 244.389 108.526C235.44 105.259 225.284 103.625 213.92 103.625C194.034 103.625 177.202 108.455 163.423 118.114C149.787 127.773 139.418 141.622 132.315 159.662C125.355 177.702 121.875 199.364 121.875 224.648C121.875 251.352 125.426 273.724 132.528 291.764C139.773 309.662 150.213 323.156 163.849 332.247C177.486 341.196 193.892 345.67 213.068 345.67C224.006 345.67 233.807 344.321 242.472 341.622C251.136 338.781 258.665 334.733 265.057 329.477C271.449 324.222 276.634 317.901 280.611 310.514C284.73 302.986 288.92 296.33 288.92 285.159C288.92 273.989 409.091 268.83 409.091 286.011C409.091 303.193 402.486 323.298 393.537 342.474C384.588 361.509 371.875 379.122 355.398 395.315C339.062 411.366 318.821 424.293 294.673 434.094C270.526 443.895 242.472 448.795 210.511 448.795C170.455 448.795 134.517 440.202 102.699 423.014C71.0227 405.827 45.9517 380.543 27.4858 347.162C9.16193 313.781 0 272.943 0 224.648C0 176.068 9.375 135.159 28.125 101.92C46.875 68.5398 72.1591 43.3267 103.977 26.2812C135.795 9.09375 171.307 0.5 210.511 0.5C238.068 0.5 263.423 4.2642 286.577 11.7926C309.73 19.321 330.043 30.3296 347.514 44.8182C364.986 59.1648 379.048 76.8494 389.702 97.8722C400.355 118.895 409.091 151.375 409.091 170.102Z"/><path fill="url(#paint0_linear_32_3)" d="M315.5 181.5C315.5 181.5 288.5 177.5 288.5 169.5C288.5 161.5 287 142 269 124.5C251 107 230.5 103 210.5 103C190.5 103 190.245 65.5912 175.5 42C160.313 17.7004 111.5 30 105.5 27C102.149 25.3243 135.442 11.903 155.5 7C175.355 2.14659 199.527 0 207.5 0C225.562 0 236.591 1.65274 254.5 4.00003C279.5 7.2768 297.5 14.4999 321.5 27C345.302 39.3971 356.448 51.3753 373 72.5C381.719 83.6282 386.417 90.2382 392.5 103C399.622 117.942 401.624 127.296 405 143.5C407.5 155.5 411.5 171 406.5 174.5C401.5 178 385.648 181.373 373 183C350.728 185.864 315.5 181.5 315.5 181.5Z"/><path fill="url(#paint1_linear_32_3)" d="M311.643 277.826C311.643 277.826 289 280.5 289 285.5C289 290.5 286 307 271.5 323.5C257 340 231 347 212 345.5C193 344 199.848 386.821 186.688 409.005C173.132 431.855 117 421.39 117 427C117 432.61 147.597 440.128 165.5 444.739C183.221 449.302 208.133 448.5 215.249 448.5C231.37 448.5 241.214 446.946 257.198 444.738C279.512 441.657 295.578 434.865 316.999 423.11C338.243 411.453 353 399.5 369.5 380.5C378.051 370.654 380.5 366 387 355.5C395.117 342.387 396.586 332.363 402.5 318C406 309.5 412.463 286.791 408 283.5C403.537 280.209 381.725 275 364.5 275C347 275 311.643 277.826 311.643 277.826Z"/><defs><linearGradient id="paint0_linear_32_3" x1="257.079" x2="257.079" y1="0" y2="183.974" gradientUnits="userSpaceOnUse"><stop stop-color="#647EFF"/><stop offset="1" stop-color="#0B2E59" stop-opacity="0"/><stop offset="1" stop-color="#647EFF" stop-opacity="0"/></linearGradient><linearGradient id="paint1_linear_32_3" x1="259.5" x2="259.5" y1="448.5" y2="275.5" gradientUnits="userSpaceOnUse"><stop stop-color="#647EFF"/><stop offset="1" stop-color="#647EFF" stop-opacity="0"/></linearGradient></defs></svg>